<?xml version="1.0" encoding="UTF-8" standalone="no"?>
<!-- Created with Inkscape (http://www.inkscape.org/) -->

<svg
   xmlns:dc="http://purl.org/dc/elements/1.1/"
   xmlns:cc="http://creativecommons.org/ns#"
   xmlns:rdf="http://www.w3.org/1999/02/22-rdf-syntax-ns#"
   xmlns:svg="http://www.w3.org/2000/svg"
   xmlns="http://www.w3.org/2000/svg"
   xmlns:sodipodi="http://sodipodi.sourceforge.net/DTD/sodipodi-0.dtd"
   xmlns:inkscape="http://www.inkscape.org/namespaces/inkscape"
   width="63.306278"
   height="57.728569"
   id="svg5101"
   version="1.1"
   inkscape:version="0.48.4 r9939"
   sodipodi:docname="New document 5">
  <defs
     id="defs5103" />
  <sodipodi:namedview
     id="base"
     pagecolor="#ffffff"
     bordercolor="#666666"
     borderopacity="1.0"
     inkscape:pageopacity="0.0"
     inkscape:pageshadow="2"
     inkscape:zoom="2.8"
     inkscape:cx="41.461744"
     inkscape:cy="26.453576"
     inkscape:document-units="px"
     inkscape:current-layer="layer1"
     showgrid="false"
     fit-margin-top="0"
     fit-margin-left="0"
     fit-margin-right="0"
     fit-margin-bottom="0"
     inkscape:window-width="425"
     inkscape:window-height="373"
     inkscape:window-x="75"
     inkscape:window-y="1099"
     inkscape:window-maximized="0" />
  <metadata
     id="metadata5106">
    <rdf:RDF>
      <cc:Work
         rdf:about="">
        <dc:format>image/svg+xml</dc:format>
        <dc:type
           rdf:resource="http://purl.org/dc/dcmitype/StillImage" />
        <dc:title></dc:title>
      </cc:Work>
    </rdf:RDF>
  </metadata>
  <g
     inkscape:label="Layer 1"
     inkscape:groupmode="layer"
     id="layer1"
     transform="translate(-343.34686,-503.49764)">
    <g
       id="g4953"
       transform="matrix(0.02405279,0,0,0.03927428,391.53021,558.16033)">
      <g
         style="fill:#000000;stroke-linecap:round;stroke-linejoin:round"
         id="g4955"
         transform="translate(-18.458305,-9.4203716)">
        <g
           id="g4957"
           transform="translate(-13.051995,-11.99017)">
          <path
             inkscape:connector-curvature="0"
             style="opacity:0;fill:#000000;stroke-width:85"
             id="path4959"
             d="m 202.93562,-293.06919 c 33.16485,6.46073 42.63154,18.07348 62.13382,34.79306 l 61.58997,52.80283 34.77678,139.286755 c 11.65615,36.52677 56.62716,57.7912598 88.04956,41.84073 l 192.5611,-82.796065 c 35.81593,-15.63014 17.47329,-48.66583 -43.55595,-65.49463 l -194.54521,-65.78172 -62.59337,-52.49734 c -19.50298,-16.72051 -34.34984,-25.95211 -33.70688,-47.37401 l -104.70719,45.21693 1e-5,1e-5 z" />
          <path
             inkscape:connector-curvature="0"
             style="fill:#ff0000;fill-opacity:1;stroke:none"
             id="path4961"
             transform="matrix(12.305539,0,0,7.5362937,-18885.459,-8005.8575)"
             d="m 1560.4342,1052.3419 c 1.9987,1.5531 4.7426,2.0982 7.1832,1.4269 1.4775,-0.4064 2.8069,-1.2169 4.1007,-2.038 1.2937,-0.8211 2.5909,-1.6709 4.0395,-2.1704 2.8085,-0.9684 6.0792,-0.4692 8.471,1.2929 l -0.9786,2.5089 -15.25,10.875 -2.875,0.875 -2.5,-1.125 -2.375,-3 0.1842,-8.6453" />
          <path
             inkscape:connector-curvature="0"
             style="fill:#ff0000;stroke:none"
             id="path4963"
             d="m 253.04784,-300.95664 -104.45108,45.14183 c -2.09603,0.92504 -2.85516,2.77059 -1.81269,4.72612 1.04242,1.95542 3.68392,3.64068 6.59116,4.23745 15.46878,3.02509 24.25803,6.81956 32.13991,11.93172 7.88177,5.11185 14.95073,11.95326 24.92407,20.50404 l 60.12175,51.54639 34.55148,137.622781 c 0.0192,0.0909 0.0423,0.1822 0.069,0.27368 6.23314,19.4401496 21.5108,35.491389 40.74714,44.62923 19.1158,9.080979 41.93804,10.486549 59.24842,1.86022 0.1095,-0.0546 0.21956,-0.0861 0.32844,-0.14163 l 191.79712,-82.503185 c 19.47952,-8.501217 25.11017,-22.893227 16.01301,-37.348242 -9.03054,-14.350814 -31.16849,-27.794814 -62.92871,-36.682294 l -0.63507,-0.23187 -191.7517,-64.98057 -61.10296,-51.2248 c -0.2912,-0.25009 -0.48925,-0.42981 -0.77738,-0.67617 -0.0503,-0.0437 -0.10356,-0.0922 -0.15547,-0.13523 -9.50255,-8.10253 -17.4328,-14.28048 -22.59567,-20.29484 -5.34992,-6.23236 -8.3541,-12.51568 -8.07285,-22.51155 0.0631,-1.89073 -1.69149,-3.93615 -4.37418,-5.19345 -2.68268,-1.25729 -5.76409,-1.47847 -7.87624,-0.54799 z m -5.48396,17.70319 c 1.60873,6.64522 4.29194,11.25228 8.82634,16.53477 5.29399,6.16744 12.08704,11.73152 19.2397,17.69626 l -23.40124,10.09093 c -0.2014,0.0739 -0.39329,0.15662 -0.57476,0.24784 -2.752,1.3822 -2.62466,4.33315 0.28179,6.65471 2.90644,2.32157 7.49133,3.13456 10.24328,1.75232 l 23.56559,-10.16179 38.92159,32.57236 -24.55086,10.58666 c -0.2014,0.0739 -0.39329,0.15662 -0.57476,0.24784 -2.75198,1.38221 -2.62457,4.33323 0.28179,6.65471 2.90644,2.32157 7.49133,3.13456 10.24337,1.7524 l 24.79698,-10.69278 9.49704,7.94016 c 0.93085,0.78275 2.10218,1.43204 3.38646,1.87732 l 45.85154,15.52555 -25.20826,10.87014 c -0.2014,0.0739 -0.39329,0.15662 -0.57476,0.24784 -2.75199,1.3822 -2.62466,4.33315 0.28179,6.65471 2.90642,2.32158 7.49133,3.13456 10.24338,1.7524 l 28.6563,-12.35697 c 1.06085,-0.43923 1.76004,-1.0992 2.09652,-1.91542 l 50.53882,17.14524 -24.22217,10.44492 c -0.17165,0.0642 -0.33604,0.13512 -0.49264,0.21244 -2.77346,1.36352 -2.68402,4.35874 0.19969,6.6901 2.88374,2.33136 7.46999,3.11589 10.24329,1.75233 l 28.6563,-12.35698 c 0.76582,-0.31703 1.27248,-0.798 1.66848,-1.32628 l 48.87088,16.54974 -22.74466,9.8078 c -0.17156,0.0642 -0.33603,0.13511 -0.49265,0.21244 -2.77348,1.3635 -2.68402,4.35874 0.1997,6.6901 2.88366,2.33127 7.46998,3.11589 10.24328,1.75233 l 28.6563,-12.35698 c 0.28184,-0.11664 0.5099,-0.27308 0.74335,-0.42169 l 0.95473,0.29631 c 0.20888,0.083 0.4208,0.16039 0.63499,0.23184 28.82977,7.97173 45.70323,19.52552 52.10148,29.693753 6.39903,10.169115 3.74202,19.870684 -12.51021,26.963244 L 395.21528,12.86006 c -0.11229,0.0448 -0.22182,0.092 -0.32845,0.14163 -13.99521,7.106891 -21.71989,3.550877 -35.71438,-3.097394 -13.99439,-6.6480695 -24.53213,-21.008307 -30.00408,-38.075047 L 294.1953,-167.12827 c -0.23557,-0.97316 -0.8958,-1.95689 -1.89541,-2.8237 l -61.59848,-52.83096 c -9.52919,-8.16993 -16.94691,-15.45986 -26.95838,-21.95298 -6.61588,-4.29076 -12.56363,-6.27914 -22.14455,-9.32313 l 63.4991,-27.69242 z" />
        </g>
      </g>
    </g>
    <path
       inkscape:connector-curvature="0"
       style="fill:#4d4d4d;fill-opacity:1;fill-rule:evenodd;stroke:none"
       id="path4965"
       d="m 390.41524,503.74177 c -1.60671,0 -3.13925,0.27087 -4.56923,0.76771 -0.32484,0.11288 -2.84282,5.72504 -3.18181,10.98835 2.74749,7.79132 2.5556,8.61433 7.06658,9.06446 0.12716,-0.0788 0.2449,-0.17936 0.28672,-0.20349 0.12073,-0.11886 0.24274,-0.23166 0.37924,-0.33298 0.0163,-0.0121 0.0297,-0.0252 0.0462,-0.037 0.0519,-0.0356 0.10508,-0.069 0.15726,-0.10174 0.0275,-0.0175 0.0553,-0.0387 0.0832,-0.0555 0.0121,-0.007 0.0249,-0.0114 0.037,-0.0185 0.0682,-0.0398 0.13473,-0.076 0.20349,-0.11099 0.0436,-0.0222 0.0856,-0.0445 0.12949,-0.0648 0.0781,-0.0359 0.15962,-0.0712 0.24049,-0.10175 0.0395,-0.0148 0.0801,-0.0326 0.12025,-0.0462 0.0428,-0.0145 0.0864,-0.0243 0.1295,-0.037 0.0406,-0.0121 0.0791,-0.0261 0.12022,-0.037 0.0435,-0.0109 0.0858,-0.0186 0.1295,-0.0277 0.25259,-0.0455 0.34239,-0.0557 0.72145,-0.0648 0.41364,0.008 0.84352,0.0878 1.29493,0.24974 2.03671,1.00231 2.76521,3.94926 3.51479,6.16013 0.12931,0.45546 0.25182,0.90959 0.36074,1.36892 0.009,0.0372 0.0189,0.0737 0.0278,0.111 0.11816,0.54975 0.23427,1.10709 0.34222,1.6649 0.0207,0.10732 0.0353,0.21611 0.0555,0.32373 0.0148,0.0868 0.0322,0.17208 0.0463,0.25898 0.88001,5.43713 0.41967,11.05229 -1.00821,16.38079 -0.14843,0.35348 -0.30447,0.62722 -0.54955,0.79162 -0.40816,0.25049 -0.68446,0.69767 -0.68446,1.21168 0,0.78668 0.63776,1.42441 1.42442,1.42441 0.81617,0.006 1.8329,-0.78399 2.22369,-1.38358 0.1339,-0.20582 0.25638,-0.42286 0.36997,-0.61972 0.0284,-0.0521 0.0552,-0.10476 0.0832,-0.15724 2.37269,-4.1965 4.01841,-8.86068 4.76349,-13.81868 0.0573,-0.37167 0.11022,-0.74423 0.15725,-1.11918 0.006,-0.0492 0.0127,-0.0988 0.0183,-0.148 0.0461,-0.37894 0.0848,-0.76481 0.12023,-1.14693 0.0838,-0.90334 0.14376,-1.80888 0.16649,-2.72859 0.008,-0.33508 0.009,-0.67112 0.009,-1.00819 0,-3.40883 -0.42829,-6.71901 -1.23016,-9.87841 -0.1172,-0.46175 -0.2369,-0.92296 -0.37,-1.37815 -1.19693,-4.09371 -3.03705,-7.91302 -5.39245,-11.34908 -0.93151,-1.35892 -1.93682,-2.66294 -3.02458,-3.89402 -0.12097,-0.0899 -0.10901,-0.0824 -0.24972,-0.1295 -1.42608,-0.49426 -2.9669,-0.7677 -4.56923,-0.7677 z" />
    <path
       inkscape:connector-curvature="0"
       style="fill:#000000;fill-opacity:1;stroke:none"
       id="path4967"
       d="m 347.35189,537.93272 -4.00503,22.15244 6.17863,0 c 0.11923,-0.21823 0.1469,-0.33338 0.13876,-0.57346 -0.003,-0.0804 -0.0396,-0.25774 -0.11099,-0.38848 -0.17043,-0.35512 -0.18615,-0.53314 -0.24049,-0.8047 -0.0422,-0.25881 -0.0746,-0.51596 -0.10176,-0.77696 -0.0112,-0.10853 -0.0287,-0.21501 -0.037,-0.32373 -0.0163,-0.3278 -0.0308,-0.67614 -0.0184,-0.98044 0,-1.56267 0.27109,-3.13303 0.86022,-4.64323 0.65516,-1.53629 1.32017,-2.59829 2.45109,-3.89402 -0.38078,-3.99425 -0.29379,-4.6961 -1.17467,-8.00077 -1.95313,-1.27421 -2.4301,-1.6141 -3.94026,-1.76665 z" />
    <path
       inkscape:connector-curvature="0"
       style="fill:#000000;fill-opacity:1;fill-rule:evenodd;stroke:none"
       id="path4969"
       d="m 379.17927,523.98455 c -1.67671,1.07654 -2.24763,3.85461 -2.24763,5.73466 0.0743,2.90299 0.0281,4.20934 0.0183,7.58455 0.1038,0.0145 0.20979,0.0162 0.31448,0.0277 l 2.45112,0 1.69264,15.2061 c 0.11191,0.94629 0.19857,1.98986 0.0278,3.14481 -0.27979,2.11422 -0.31197,2.26556 -0.73996,4.40274 l 6.1324,0 c 0.2108,-0.24842 0.35148,-0.56509 0.35148,-0.91569 0,-0.25023 -0.063,-0.47979 -0.17572,-0.68446 -0.0356,-0.0646 -0.0397,-0.0778 -0.0648,-0.11099 -0.0293,-0.0389 -0.05,-0.0737 -0.074,-0.111 -0.19526,-0.2874 -0.34855,-0.58572 -0.36071,-0.61046 l 0,-0.009 c -0.13335,-0.29453 -0.36797,-0.87641 -0.32375,-1.25793 0.63317,-5.8218 0.66309,-5.86798 1.72966,-11.0346 1.00258,-4.61111 1.20012,-9.55302 0.0555,-13.80943 0.3062,-0.6086 0.55497,-1.24601 0.73996,-1.91464 0.32517,-1.14249 0.28302,-2.13789 0.36998,-3.15406 0.0998,-0.89008 0.51092,-1.6886 1.11917,-2.28462 -0.0198,-0.024 -0.0337,-0.0736 -0.0647,-0.074 l -10.95139,-0.12951 z" />
    <path
       inkscape:connector-curvature="0"
       style="fill:#4d4d4d;fill-opacity:1;fill-rule:evenodd;stroke:none"
       id="path4971"
       d="m 361.94557,511.80689 c -9.29127,0.29226 -16.82187,6.98714 -17.78668,15.87206 1.38925,2.48211 3.10332,3.28621 3.60823,3.38593 3.04658,0.6017 3.16971,0.41754 5.59496,-0.79608 3.46705,-4.93888 9.1841,-8.25634 15.71487,-8.53726 -0.47701,-1.35841 -0.73073,-2.81269 -0.73073,-4.32874 0,-1.51073 0.25689,-2.96522 0.73073,-4.31948 -2.26617,-0.87579 -4.62408,-1.29599 -6.94636,-1.27643 -0.062,0.003 -0.12319,-0.003 -0.18502,0 z" />
    <path
       inkscape:connector-curvature="0"
       style="fill:#000000;fill-opacity:1;fill-rule:evenodd;stroke:none"
       id="path4973"
       d="m 368.48643,521.5047 c -6.37567,0.27541 -11.96107,3.5256 -15.3458,8.36769 0.12978,5.27713 0.21284,3.83265 0.21284,8.35651 0.20636,1.44217 3.14952,6.04855 4.46516,6.92362 l 0.30741,0.20298 c 0.18001,-0.43929 0.34268,-0.88433 0.56864,-1.29844 1.56101,-2.86103 4.18167,-5.08545 7.34836,-6.16893 l 2.1718,-3.79816 0.37897,-12.29272 c -0.0367,-0.0973 -0.0962,-0.24277 -0.13055,-0.34112 z" />
    <path
       inkscape:connector-curvature="0"
       style="fill:#626262;fill-opacity:0.55555558;stroke:none"
       id="path4975"
       d="m 368.48643,521.53418 c 0.0344,0.0983 0.0707,0.19526 0.10741,0.29255 0.0519,-0.10099 0.10457,-0.20148 0.15773,-0.3017 -0.0888,0.003 -0.1767,0.005 -0.26514,0.009 z" />
    <path
       inkscape:connector-curvature="0"
       style="fill:#626262;fill-opacity:0.55555558;stroke:none"
       id="path4977"
       d="m 358.32674,546.87274 c -0.007,-0.003 -0.0136,-0.003 -0.0204,-0.004 l 0.004,0.0252 c 0.005,-0.007 0.0109,-0.0136 0.016,-0.0204 z" />
    <path
       inkscape:connector-curvature="0"
       style="fill:#4d4d4d;fill-opacity:1;stroke:none"
       id="path4979"
       d="m 345.64999,527.49009 c -0.50424,0 -0.9995,0.0287 -1.48918,0.0833 -0.0673,0.62186 -0.10173,1.25681 -0.10173,1.89614 0,3.3401 0.94072,6.46001 2.58059,9.12921 0.88182,1.43533 1.97222,2.74108 3.21881,3.87552 0.39004,0.33851 0.64237,0.56126 0.89721,0.7677 l 2.93206,16.84326 7.22384,0 c 0.0316,-0.11694 0.0555,-0.24286 0.0555,-0.36998 0,-0.35127 -0.13112,-0.67656 -0.34225,-0.92495 l -0.0278,-0.0277 -0.5087,-0.48097 c -0.0372,-0.046 -0.0743,-0.10149 -0.111,-0.14799 -0.22997,-0.29145 -0.44332,-0.58709 -0.64746,-0.8972 -1.03736,-1.57569 -1.73585,-3.38467 -1.99788,-5.32768 -0.19482,-1.88627 -0.14947,-3.13983 0.36998,-5.22594 0.15332,-0.48834 0.31048,-0.97435 0.46247,-1.38742 0.13837,-0.38108 0.25724,-0.76902 0.36072,-1.16543 0.27994,-1.07235 0.42547,-2.19772 0.42547,-3.35755 0,-4.53185 -2.27184,-8.53732 -5.7439,-10.93286 -2.14546,-1.48024 -4.75129,-2.34937 -7.55682,-2.34937 z" />
    <path
       inkscape:connector-curvature="0"
       style="fill:#4d4d4d;fill-opacity:1;fill-rule:evenodd;stroke:none"
       id="path4981"
       d="m 368.49436,521.4078 c -0.22533,0.48097 -0.44184,0.97165 -0.64746,1.46141 -1.49743,3.28967 -2.33086,6.94129 -2.33086,10.78486 0,1.41394 0.11585,2.79967 0.33298,4.15302 0.19484,1.21457 0.49106,2.62883 0.90645,4.03276 0.25561,0.86389 0.61073,1.68574 0.96194,2.48809 0.50506,1.39973 1.04559,2.78715 1.55391,4.17152 0.19034,0.60227 0.37045,1.22105 0.49953,1.7389 0.42837,1.80431 0.0958,3.69155 -0.98971,4.94844 l -3.34632,2.7231 2.91161,2.88207 c 0.25961,0.23892 0.67952,0.43424 1.07359,0.43424 0.73652,0 1.28388,-0.56495 1.36827,-1.22969 0,-0.003 0,-0.006 0,-0.009 0.13124,-0.24253 0.25567,-0.48242 0.37921,-0.68446 0.25599,-0.38067 0.55633,-0.73694 0.86945,-1.09144 l 0.36998,-0.36074 c 0,0 1.63953,-1.68018 2.22913,-2.68234 0.29734,-0.50539 0.5122,-1.06557 0.6382,-1.63714 0.17992,-0.81641 0.2409,-1.55725 0.15725,-2.50662 -0.0544,-0.62278 -0.087,-0.80318 -0.13875,-1.7389 -0.007,-3.57416 0.20736,-7.01324 1.22092,-10.30389 0.20491,-0.6043 0.44638,-1.25733 0.66596,-1.78513 0.23626,-0.5687 0.4512,-1.04973 0.73996,-1.55391 0.48618,-0.98831 1.16792,-1.92042 1.6649,-2.91356 0.59987,-1.19112 0.6247,-2.24473 0.63808,-3.4038 0,-0.20591 -0.008,-0.41408 -0.0183,-0.61973 -0.004,-0.0857 -0.004,-0.17329 -0.009,-0.25898 -0.0697,-1.28377 -0.28408,-2.53012 -0.6197,-3.72752 -0.003,-0.01 -0.007,-0.0183 -0.009,-0.0278 -0.0257,-0.11031 -0.0708,-0.27064 -0.0969,-0.38039 -0.0377,-0.13435 0,-0.14782 -0.0789,-0.22084 -3.35644,-2.71614 -7.24011,-3.15268 -10.896,-2.68237 z" />
    <path
       inkscape:connector-curvature="0"
       style="fill:#ff0000;fill-opacity:1;fill-rule:evenodd;stroke:none"
       id="path4983"
       d="m 381.07066,503.49822 c -0.68899,0 -1.36655,0.0525 -2.02757,0.15367 l -0.0413,-0.0142 c 0.009,0.005 0.0166,0.0112 0.0252,0.0166 -3.09666,0.47804 -5.84408,2.02479 -7.8628,4.25732 -0.90151,0.99693 -1.65718,2.13037 -2.23378,3.36612 -0.19139,0.41024 -0.36258,0.83317 -0.51318,1.26468 -0.49236,1.41047 -0.76064,2.92721 -0.76064,4.50787 0,1.53725 0.25253,3.07399 0.71935,4.4514 0.0886,-0.004 0.17679,-0.007 0.26574,-0.01 0.20476,-0.006 0.40999,-0.0118 0.61629,-0.0118 0.16386,0 0.32739,0.003 0.49027,0.007 3.50378,0.0864 6.77933,1.0389 9.59954,2.74186 0.28713,0.17339 0.57021,0.35382 1.22229,0.91421 0.65205,0.56038 2.44017,1.37634 4.41363,1.37634 0.21092,0 0.41914,-0.0101 0.62544,-0.0284 1.20675,-0.10661 2.32968,-0.51856 3.29455,-1.16063 0.42249,-0.28119 0.78927,-0.61997 1.14528,-0.98308 -0.12814,-0.16164 -0.22892,-0.31004 -0.35258,-0.47541 -2.57821,-3.44686 -4.1756,-7.68503 -4.37131,-12.28972 -0.0136,-0.31827 -0.0207,-0.63805 -0.0207,-0.95973 0,-0.72693 0.0349,-1.4446 0.10309,-2.15348 0.0207,-0.21663 0.044,-0.43293 0.071,-0.64769 0.14278,-1.13501 0.37084,-2.33116 0.67813,-3.40534 -0.24469,-0.10138 -0.49287,-0.19437 -0.74458,-0.2813 -1.36175,-0.47035 -2.82204,-0.63687 -4.3415,-0.63687 z" />
  </g>
</svg>
