<?xml version="1.0" encoding="UTF-8" standalone="no"?>
<!-- Created with Inkscape (http://www.inkscape.org/) -->

<svg
   xmlns:dc="http://purl.org/dc/elements/1.1/"
   xmlns:cc="http://creativecommons.org/ns#"
   xmlns:rdf="http://www.w3.org/1999/02/22-rdf-syntax-ns#"
   xmlns:svg="http://www.w3.org/2000/svg"
   xmlns="http://www.w3.org/2000/svg"
   xmlns:inkscape="http://www.inkscape.org/namespaces/inkscape"
   version="1.1"
   width="1885"
   height="666"
   id="svg2">
  <metadata
     id="metadata8">
    <rdf:RDF>
      <cc:Work
         rdf:about="">
        <dc:format>image/svg+xml</dc:format>
        <dc:type
           rdf:resource="http://purl.org/dc/dcmitype/StillImage" />
        <dc:title />
      </cc:Work>
    </rdf:RDF>
  </metadata>
  <defs
     id="defs6">
    <inkscape:path-effect
       effect="spiro"
       id="path-effect33208" />
  </defs>
  <path
     d="m 978.52529,618.12853 17.20128,5.51739 15.57853,-2.10959 8.7629,-3.89463 -2.7587,-36.67441 c -3.6292,-7.0064 -6.9862,-14.15372 -10.0611,-21.42046 -1.1447,-2.70534 -2.2504,-5.42723 -3.3165,-8.16452 l -0.7404,-0.23327 -14.01663,-1.04972 -0.32963,0.0963 -1.8611,1.54162 -3.91492,18.43863 -6.65332,13.79348 -2.19073,18.01265 0.48683,14.84827 4.13804,1.46049"
     inkscape:connector-curvature="0"
     id="path33206"
     style="fill:#ffffff;fill-opacity:1;stroke:none" />
  <g
     transform="matrix(0.57226424,0,0,0.57157594,376.87995,103.1582)"
     id="g3002">
    <path
       d="m 1084.4207,984.71919 c 1.9047,-8.95433 3.456,-18.12467 7.6386,-26.37208 1.7084,8.85615 3.731,17.65339 6.107,26.37208 l -13.7456,0 z"
       inkscape:connector-curvature="0"
       id="path12"
       style="fill:#ffffff" />
    <path
       d="m 1022.3126,678.35551 c 2.1872,0.22681 -1.4877,-13.83698 4.5123,-12.97538 1.8535,0.26617 -0.8231,14.08913 1.2424,15.7873 2.668,2.19353 5.3703,-15.12492 9.0619,-11.45648 2.8731,2.85517 -5.3648,11.87673 -5.4135,19.79019 -0.01,1.17713 0.7913,2.05778 2.2335,1.75394 1.9069,-0.40173 4.9942,-3.2737 6.0689,-4.10708 1.305,-1.0119 2.1592,-1.41891 3.1128,-1.54684 0.9537,-0.12794 1.6954,-0.14406 1.9803,0.12767 1.9005,1.81274 -1.3691,4.03993 -5.0411,7.11509 -1.836,1.53759 -3.0427,3.2179 -5.1833,4.66198 -2.1406,1.44408 -4.2826,3.41417 -6.002,4.49201 -0.087,0.55245 -0.6177,3.21091 -0.2701,4.19799 0.3476,0.98707 1.0472,1.33838 1.6914,2.15523 1.2208,1.54803 1.2216,3.35134 1.6498,5.37591 0.8564,4.04915 1.1528,8.4066 1.5198,12.54135 0.3669,4.13475 0.5529,8.29835 0.6851,12.46286 0.1323,4.16451 0.2108,8.32994 0.363,12.46838 -0.02,10.50563 8.7776,17.69266 13.4315,26.35244 6.3637,-2.18989 4.0175,-2.26784 7.7564,-1.77184 3.7155,0.49291 10.6726,4.5897 14.1188,6.1901 -0.1178,9.97543 0.3143,20.06869 -1.7083,29.90668 -1.4335,9.03288 -5.5768,17.2803 -9.406,25.4688 -5.027,10.36817 -6.8728,22.03237 -6.7158,33.48056 0.098,9.28815 -0.4516,18.85123 2.3957,27.84483 11.4678,8.28668 26.3918,6.95139 39.784,6.95139 8.8757,0.27491 17.4962,-2.23859 25.3313,-6.30338 -0.864,-12.74421 -3.1026,-25.39024 -2.9455,-38.19337 -0.8248,-27.43247 -22.3466,-49.56302 -21.62,-77.17221 3.7997,-2.45459 7.7989,-5.22434 11.8262,-7.20843 5.0951,-2.51018 3.0287,-3.51585 13.3284,-1.07826 1.7526,-2.18458 1.9005,-3.5409 3.77,-5.63251 1.8695,-2.09162 5.4605,-4.91853 7.3075,-7.02579 1.8471,-2.10726 3.6482,-4.2495 5.3335,-6.48102 1.6854,-2.23153 3.2551,-4.55234 4.6396,-7.01674 -2.7787,-2.81787 -5.4677,-5.74006 -8.0173,-8.77516 -2.5498,-3.03509 -4.9602,-6.1831 -7.1816,-9.45261 -2.2214,-3.26951 -4.5682,-6.34609 -6.3619,-9.86719 -0.8968,-1.76056 -1.734,-3.7423 -2.5053,-5.56896 -0.3856,-0.91334 0.1885,-3.65874 -0.1634,-4.58901 -0.3519,-0.93027 -3.202,-1.17734 -3.8331,-1.43307 -6.0705,-0.12927 -19.5727,1.09177 -20.5775,-0.31396 -5.0015,-8.07931 14.276,-1.08419 14.0545,-5.41241 -0.3927,-7.66881 -19.6649,-8.51238 -17.7959,-15.88983 0.8524,-3.36489 13.5627,7.58784 13.6179,3.37801 0.063,-4.76454 -9.5133,-7.07997 -7.5852,-12.01345 1.5179,-3.88397 8.4566,8.57925 11.4241,7.86266 1.175,-0.28372 -6.379,-9.85662 -3.0746,-10.83557 4.9524,-1.46719 5.2495,11.83933 9.4814,12.19194 2.5209,0.21004 -3.658,-11.68913 0.2779,-11.92986 1.3517,-0.0827 3.9996,9.79191 5.1451,12.2612 1.1714,1.9405 1.3365,2.40899 2.5033,3.99302 1.3521,1.83545 2.6406,3.93271 4.0612,6.08913 1.415,1.46269 4.2369,4.94307 5.8066,6.2934 1.5696,1.35033 2.3542,0.87063 4.1985,1.84408 1.6443,0.86788 2.6093,1.96975 4.1299,3.36672 1.5207,1.39696 3.0188,3.48922 4.0841,5.35962 6.4604,10.81982 16.2199,19.51887 21.3058,31.12416 -0.7069,10.56454 -7.2067,19.71524 -11.6838,29.04267 -5.95,12.09621 -16.7109,20.63817 -23.9764,31.75253 -1.8459,17.24102 2.6313,34.26604 5.4001,51.17322 1.9636,11.95876 5.5964,23.56404 8.2867,35.36569 2.3171,10.99656 -8.5224,17.57485 -14.0796,25.33134 4.7718,21.28618 7.8351,43.02399 8.4635,64.86 l -38.3898,0 c -2.376,-8.71869 -4.3986,-17.51593 -6.107,-26.37208 -4.1826,8.24741 -5.7339,17.41775 -7.6386,26.37208 l -38.8414,0 c 0.3338,-11.19291 0.4909,-22.4251 2.2189,-33.51984 0.8248,-9.83799 3.299,-19.61706 2.6706,-29.53358 -8.2082,-6.67648 -19.9509,-10.50564 -23.6818,-21.36473 2.8669,-15.86644 7.5404,-31.43834 9.563,-47.48152 1.1389,-10.97692 4.4968,-21.97347 3.1615,-33.02892 -4.9877,-19.75451 -21.6004,-34.10894 -26.588,-53.88308 -2.278,-10.07363 -1.2961,-20.50072 -2.8867,-30.65289 -1.1192,-7.77613 -2.1675,-15.14688 2.0348,-22.33391 2.0433,-4.64714 2.6963,-2.33951 2.6915,-9.13489 0,-3.35104 0.1956,-7.69138 -0.1234,-11.11815 -0.4621,-4.96313 -1.7018,-8.02014 -3.4479,-11.03286 -2.0953,-3.61525 -2.8199,-9.10903 0.076,-7.49561 2.4409,1.35998 5.6952,11.49386 6.9782,9.38283 1.1803,-1.94207 -3.1786,-14.15766 0,-16.61089 4.1171,-3.18043 2.2229,11.25286 4.0695,11.44436 z"
       inkscape:connector-curvature="0"
       id="path6"
       style="fill:#181617;fill-opacity:1" />
    <path
       d="m 1084.4207,984.71919 c 1.9047,-8.95433 3.456,-18.12467 7.6386,-26.37208 1.7084,8.85615 3.731,17.65339 6.107,26.37208 l -13.7456,0 z"
       inkscape:connector-curvature="0"
       id="path3890"
       style="fill:#ffffff" />
    <path
       d="m 1073.7627,807.11072 c 2.1507,-4.15671 5.8358,-7.29468 9.7158,-9.79751 3.968,2.05006 7.0305,5.5339 9.0051,9.49566 -1.8739,-0.34587 -3.7731,-0.55339 -5.6848,-0.59741 -0.3018,1.06276 -0.6917,2.16325 -0.4528,3.28261 3.5342,18.62658 5.5968,37.49213 7.3765,56.35139 0.4527,5.03081 0.8049,10.06791 1.0753,15.1113 0.2767,2.72922 -1.3332,5.11256 -2.6475,7.35127 -2.0689,3.18199 -4.4774,6.34512 -7.8354,8.24425 -3.6097,-2.67891 -6.8608,-5.95523 -9.0052,-9.94214 -1.1508,-1.91171 -0.8615,-4.21331 -0.742,-6.33254 0.7231,-6.6784 0.1949,-13.41969 0.8741,-20.0981 0.3333,-12.60847 1.1508,-25.20437 2.4273,-37.75624 0.4214,-4.3265 1.1571,-8.61527 2.1255,-12.85373 0.3459,-1.10049 -0.044,-2.1884 -0.4464,-3.20714 -1.9432,0.13206 -3.8738,0.37731 -5.7855,0.74833 z"
       inkscape:connector-curvature="0"
       id="path3032"
       style="fill:#5d9bd3" />
    <path
       d="m 1069.8432,781.96189 c -0.4689,-2.9777 -1.8513,-5.73618 -3.5928,-8.15974 -2.2287,-2.55754 -2.5088,-6.1259 -2.6976,-9.35935 -0.3775,-1.56497 1.2727,-2.72194 0.9195,-4.29299 -0.3958,-4.293 -1.4127,-8.65299 -0.408,-12.94599 1.3031,-5.01762 5.0603,-9.45676 10.0596,-11.07653 4.1591,-1.29095 8.5983,-2.10693 12.9521,-1.5528 1.8999,0.18269 3.2335,1.58933 4.7132,2.61844 2.3018,0.682 4.8045,1.55278 6.1624,3.67797 2.4297,3.4892 2.4967,7.91616 2.4297,12.00212 0.1096,3.09948 -0.8464,6.42427 1.023,9.17667 0.097,3.55009 0.6637,8.53119 -3.0995,10.43716 -0.7977,0.49933 -1.1022,1.46144 -1.4858,2.26524 -1.1692,2.88635 -2.1495,5.91886 -2.1374,9.06706 -3.5927,2.78284 -7.636,5.74227 -12.3858,5.73618 -5.0541,-0.48106 -8.732,-4.293 -12.3126,-7.48383 -0.082,-0.0666 -0.1078,-0.0597 -0.14,-0.10961 z"
       inkscape:connector-curvature="0"
       id="path3034"
       style="fill:#181617;fill-opacity:1" />
  </g>
</svg>
