<?xml version="1.0" encoding="utf-8" ?>
<svg baseProfile="full" height="666" version="1.1" width="1885" xmlns="http://www.w3.org/2000/svg" xmlns:ev="http://www.w3.org/2001/xml-events" xmlns:xlink="http://www.w3.org/1999/xlink"><defs /><g font-family="Teko Light" font-size="38" id="layer7"><text fill="rgb(223, 218, 184)" x="1078" y="261">1</text><text fill="rgb(214, 211, 181)" x="790" y="357">1</text><text fill="rgb(221, 216, 184)" x="891" y="355">1</text><text fill="rgb(220, 217, 184)" x="714" y="285">1</text><text fill="rgb(223, 219, 187)" x="767" y="347">1</text><text fill="rgb(223, 218, 188)" x="994" y="237">1</text><text fill="rgb(216, 211, 180)" x="1007" y="251">0</text><text fill="rgb(214, 211, 180)" x="823" y="299">1</text><text fill="rgb(214, 210, 179)" x="850" y="365">1</text><text fill="rgb(215, 211, 181)" x="733" y="303">0</text><text fill="rgb(222, 217, 184)" x="776" y="337">1</text><text fill="rgb(222, 218, 185)" x="985" y="247">0</text><text fill="rgb(216, 211, 179)" x="919" y="235">1</text><text fill="rgb(221, 217, 186)" x="948" y="249">1</text><text fill="rgb(214, 210, 180)" x="833" y="359">1</text><text fill="rgb(219, 215, 185)" x="920" y="177">1</text><text fill="rgb(218, 214, 180)" x="741" y="287">0</text><text fill="rgb(220, 214, 184)" x="860" y="425">0</text><text fill="rgb(225, 221, 189)" x="977" y="231">0</text><text fill="rgb(218, 214, 182)" x="800" y="321">1</text><text fill="rgb(215, 212, 182)" x="791" y="427">0</text><text fill="rgb(215, 213, 181)" x="721" y="359">0</text><text fill="rgb(171, 170, 145)" x="877" y="495">0</text><text fill="rgb(221, 217, 184)" x="882" y="333">1</text><text fill="rgb(213, 212, 183)" x="750" y="277">0</text><text fill="rgb(225, 219, 188)" x="949" y="223">0</text><text fill="rgb(218, 215, 184)" x="923" y="227">0</text><text fill="rgb(218, 216, 183)" x="712" y="337">1</text><text fill="rgb(220, 215, 186)" x="909" y="271">1</text><text fill="rgb(219, 214, 182)" x="792" y="273">0</text><text fill="rgb(219, 214, 181)" x="855" y="363">1</text><text fill="rgb(219, 218, 188)" x="749" y="271">0</text><text fill="rgb(213, 210, 178)" x="774" y="357">0</text><text fill="rgb(214, 210, 183)" x="943" y="187">0</text><text fill="rgb(221, 215, 182)" x="692" y="345">1</text><text fill="rgb(215, 209, 181)" x="1070" y="245">0</text><text fill="rgb(220, 216, 184)" x="849" y="423">1</text><text fill="rgb(220, 215, 184)" x="887" y="171">1</text><text fill="rgb(216, 213, 182)" x="724" y="313">1</text><text fill="rgb(226, 221, 189)" x="906" y="221">1</text><text fill="rgb(216, 212, 183)" x="918" y="197">1</text><text fill="rgb(214, 209, 180)" x="699" y="291">0</text><text fill="rgb(220, 214, 182)" x="955" y="291">1</text><text fill="rgb(215, 212, 182)" x="812" y="297">1</text><text fill="rgb(221, 217, 187)" x="920" y="273">1</text><text fill="rgb(219, 214, 186)" x="733" y="271">1</text><text fill="rgb(218, 214, 186)" x="864" y="417">1</text><text fill="rgb(222, 219, 188)" x="737" y="263">0</text><text fill="rgb(215, 211, 179)" x="882" y="205">1</text><text fill="rgb(220, 215, 186)" x="1065" y="279">0</text><text fill="rgb(219, 214, 181)" x="843" y="419">1</text><text fill="rgb(225, 222, 191)" x="755" y="307">0</text><text fill="rgb(223, 219, 190)" x="887" y="267">1</text><text fill="rgb(210, 210, 183)" x="706" y="397">1</text><text fill="rgb(222, 217, 184)" x="806" y="293">0</text><text fill="rgb(216, 212, 180)" x="874" y="349">1</text><text fill="rgb(223, 216, 183)" x="912" y="161">1</text><text fill="rgb(224, 218, 186)" x="737" y="295">0</text><text fill="rgb(198, 196, 168)" x="870" y="485">0</text><text fill="rgb(214, 210, 178)" x="929" y="295">0</text><text fill="rgb(212, 210, 182)" x="707" y="275">0</text><text fill="rgb(217, 212, 180)" x="789" y="319">0</text><text fill="rgb(217, 213, 181)" x="982" y="261">1</text><text fill="rgb(223, 217, 188)" x="885" y="255">0</text><text fill="rgb(216, 212, 180)" x="889" y="311">1</text><text fill="rgb(221, 217, 183)" x="1037" y="239">0</text><text fill="rgb(221, 216, 186)" x="759" y="299">1</text><text fill="rgb(217, 214, 183)" x="706" y="301">1</text><text fill="rgb(215, 211, 182)" x="726" y="261">0</text></g></svg>