<?xml version="1.0" encoding="utf-8" ?>
<svg baseProfile="full" height="666" version="1.1" width="1885" xmlns="http://www.w3.org/2000/svg" xmlns:ev="http://www.w3.org/2001/xml-events" xmlns:xlink="http://www.w3.org/1999/xlink"><defs /><g font-family="Teko Light" font-size="38" id="layer3"><text fill="rgb(39, 59, 81)" x="887" y="555">1</text><text fill="rgb(26, 31, 54)" x="857" y="567">0</text><text fill="rgb(114, 158, 148)" x="591" y="347">1</text><text fill="rgb(217, 213, 182)" x="667" y="419">1</text><text fill="rgb(201, 202, 180)" x="931" y="499">1</text><text fill="rgb(127, 164, 148)" x="933" y="543">0</text><text fill="rgb(213, 205, 170)" x="958" y="533">1</text><text fill="rgb(31, 39, 63)" x="868" y="569">0</text><text fill="rgb(38, 45, 69)" x="910" y="597">1</text><text fill="rgb(58, 100, 119)" x="720" y="481">1</text><text fill="rgb(215, 204, 171)" x="978" y="525">1</text><text fill="rgb(48, 77, 102)" x="899" y="595">1</text><text fill="rgb(70, 112, 129)" x="804" y="537">0</text><text fill="rgb(33, 43, 63)" x="894" y="565">1</text><text fill="rgb(121, 158, 145)" x="946" y="557">0</text><text fill="rgb(201, 200, 173)" x="795" y="483">1</text><text fill="rgb(227, 219, 186)" x="922" y="509">1</text><text fill="rgb(223, 215, 182)" x="929" y="519">0</text><text fill="rgb(218, 210, 178)" x="983" y="523">0</text><text fill="rgb(66, 113, 128)" x="714" y="477">0</text><text fill="rgb(218, 212, 178)" x="810" y="509">0</text><text fill="rgb(108, 161, 152)" x="737" y="487">1</text><text fill="rgb(215, 214, 185)" x="845" y="495">0</text><text fill="rgb(127, 171, 159)" x="625" y="391">0</text><text fill="rgb(88, 117, 125)" x="939" y="547">0</text><text fill="rgb(129, 175, 161)" x="758" y="485">1</text><text fill="rgb(57, 89, 108)" x="922" y="573">1</text><text fill="rgb(223, 219, 187)" x="694" y="453">0</text><text fill="rgb(130, 171, 160)" x="649" y="407">0</text><text fill="rgb(215, 209, 176)" x="582" y="325">0</text><text fill="rgb(120, 159, 147)" x="918" y="549">1</text><text fill="rgb(221, 214, 182)" x="950" y="517">1</text><text fill="rgb(28, 31, 57)" x="891" y="579">0</text><text fill="rgb(218, 207, 173)" x="967" y="523">0</text><text fill="rgb(106, 155, 150)" x="785" y="519">0</text><text fill="rgb(29, 35, 59)" x="873" y="567">0</text><text fill="rgb(217, 212, 178)" x="636" y="393">0</text><text fill="rgb(216, 210, 177)" x="892" y="521">0</text><text fill="rgb(43, 75, 102)" x="781" y="527">1</text><text fill="rgb(213, 209, 175)" x="642" y="397">0</text><text fill="rgb(216, 208, 174)" x="973" y="527">1</text><text fill="rgb(214, 204, 172)" x="963" y="531">1</text><text fill="rgb(196, 198, 176)" x="778" y="477">0</text><text fill="rgb(207, 203, 173)" x="602" y="349">1</text><text fill="rgb(226, 219, 189)" x="953" y="503">0</text><text fill="rgb(224, 218, 187)" x="769" y="487">0</text><text fill="rgb(59, 94, 110)" x="843" y="547">1</text><text fill="rgb(217, 210, 177)" x="971" y="515">1</text><text fill="rgb(216, 210, 178)" x="903" y="523">0</text><text fill="rgb(122, 165, 156)" x="834" y="525">0</text><text fill="rgb(211, 210, 177)" x="574" y="309">1</text><text fill="rgb(214, 208, 179)" x="878" y="501">1</text><text fill="rgb(220, 212, 181)" x="881" y="519">0</text><text fill="rgb(128, 174, 159)" x="753" y="487">1</text><text fill="rgb(202, 204, 177)" x="581" y="319">0</text><text fill="rgb(216, 211, 178)" x="820" y="505">1</text><text fill="rgb(119, 164, 151)" x="712" y="465">1</text><text fill="rgb(214, 205, 171)" x="936" y="529">1</text><text fill="rgb(218, 207, 173)" x="962" y="525">1</text><text fill="rgb(47, 87, 110)" x="769" y="519">1</text><text fill="rgb(219, 211, 179)" x="952" y="529">0</text><text fill="rgb(215, 208, 176)" x="905" y="535">0</text><text fill="rgb(229, 221, 189)" x="937" y="503">1</text><text fill="rgb(219, 213, 184)" x="865" y="519">1</text><text fill="rgb(80, 105, 115)" x="943" y="539">1</text><text fill="rgb(217, 212, 181)" x="874" y="541">0</text><text fill="rgb(50, 82, 106)" x="711" y="459">0</text><text fill="rgb(41, 69, 97)" x="787" y="531">1</text><text fill="rgb(216, 211, 181)" x="733" y="463">1</text><text fill="rgb(165, 185, 167)" x="875" y="547">0</text><text fill="rgb(202, 203, 174)" x="838" y="517">0</text><text fill="rgb(218, 211, 178)" x="933" y="511">0</text><text fill="rgb(122, 165, 157)" x="930" y="557">0</text><text fill="rgb(223, 216, 184)" x="895" y="507">0</text><text fill="rgb(114, 163, 156)" x="611" y="371">1</text><text fill="rgb(218, 209, 178)" x="988" y="521">1</text><text fill="rgb(44, 81, 106)" x="792" y="529">0</text><text fill="rgb(216, 211, 180)" x="868" y="505">1</text><text fill="rgb(108, 147, 145)" x="926" y="565">0</text><text fill="rgb(50, 83, 107)" x="923" y="579">0</text><text fill="rgb(220, 211, 179)" x="937" y="535">0</text><text fill="rgb(218, 212, 182)" x="804" y="505">1</text><text fill="rgb(41, 76, 103)" x="799" y="539">0</text><text fill="rgb(221, 217, 189)" x="685" y="431">1</text><text fill="rgb(118, 168, 156)" x="644" y="409">1</text><text fill="rgb(50, 86, 111)" x="824" y="529">0</text><text fill="rgb(28, 30, 54)" x="887" y="587">1</text><text fill="rgb(221, 215, 186)" x="813" y="495">0</text><text fill="rgb(116, 162, 155)" x="779" y="515">1</text><text fill="rgb(215, 211, 185)" x="878" y="533">1</text><text fill="rgb(47, 77, 101)" x="755" y="499">0</text><text fill="rgb(67, 102, 116)" x="759" y="491">1</text><text fill="rgb(223, 217, 185)" x="830" y="501">0</text><text fill="rgb(46, 78, 102)" x="867" y="563">0</text><text fill="rgb(115, 162, 153)" x="828" y="521">0</text><text fill="rgb(222, 216, 185)" x="727" y="459">0</text><text fill="rgb(120, 162, 151)" x="880" y="545">1</text><text fill="rgb(33, 42, 67)" x="895" y="571">0</text><text fill="rgb(206, 202, 172)" x="954" y="541">0</text><text fill="rgb(212, 203, 170)" x="968" y="529">1</text><text fill="rgb(113, 164, 158)" x="645" y="415">0</text><text fill="rgb(213, 206, 174)" x="922" y="541">0</text><text fill="rgb(153, 182, 165)" x="790" y="517">0</text><text fill="rgb(121, 163, 150)" x="920" y="561">0</text><text fill="rgb(220, 211, 178)" x="976" y="513">0</text><text fill="rgb(219, 214, 180)" x="704" y="449">0</text><text fill="rgb(213, 209, 176)" x="662" y="421">1</text><text fill="rgb(108, 158, 150)" x="809" y="535">0</text><text fill="rgb(101, 121, 124)" x="968" y="497">0</text><text fill="rgb(222, 217, 187)" x="693" y="447">1</text><text fill="rgb(103, 149, 142)" x="916" y="569">1</text><text fill="rgb(123, 166, 157)" x="915" y="563">0</text><text fill="rgb(32, 45, 71)" x="828" y="553">1</text><text fill="rgb(50, 86, 110)" x="825" y="535">0</text><text fill="rgb(86, 129, 131)" x="918" y="581">1</text><text fill="rgb(35, 44, 67)" x="834" y="557">0</text><text fill="rgb(219, 210, 176)" x="980" y="505">0</text><text fill="rgb(47, 84, 107)" x="798" y="533">0</text><text fill="rgb(126, 160, 142)" x="949" y="543">1</text><text fill="rgb(117, 167, 157)" x="643" y="403">0</text><text fill="rgb(221, 215, 184)" x="814" y="501">1</text><text fill="rgb(206, 204, 172)" x="589" y="335">0</text><text fill="rgb(155, 162, 150)" x="979" y="499">0</text><text fill="rgb(217, 209, 177)" x="966" y="517">0</text><text fill="rgb(213, 207, 176)" x="806" y="517">1</text><text fill="rgb(211, 208, 176)" x="850" y="525">0</text><text fill="rgb(222, 213, 182)" x="939" y="515">1</text><text fill="rgb(220, 216, 185)" x="824" y="497">1</text><text fill="rgb(221, 214, 187)" x="773" y="479">0</text><text fill="rgb(224, 218, 189)" x="885" y="511">0</text><text fill="rgb(219, 214, 183)" x="807" y="523">1</text><text fill="rgb(118, 163, 156)" x="713" y="471">1</text><text fill="rgb(214, 214, 185)" x="660" y="409">0</text><text fill="rgb(52, 89, 116)" x="689" y="455">0</text><text fill="rgb(118, 167, 155)" x="736" y="481">0</text><text fill="rgb(228, 224, 196)" x="835" y="499">1</text><text fill="rgb(46, 91, 116)" x="749" y="495">1</text><text fill="rgb(113, 161, 153)" x="814" y="533">0</text><text fill="rgb(217, 213, 182)" x="661" y="415">1</text><text fill="rgb(215, 206, 176)" x="974" y="533">1</text><text fill="rgb(214, 209, 178)" x="722" y="461">0</text><text fill="rgb(215, 210, 180)" x="790" y="485">1</text><text fill="rgb(216, 210, 178)" x="798" y="501">1</text><text fill="rgb(34, 44, 69)" x="877" y="559">0</text><text fill="rgb(211, 209, 182)" x="883" y="499">1</text><text fill="rgb(218, 213, 181)" x="687" y="443">1</text><text fill="rgb(219, 214, 183)" x="836" y="505">1</text><text fill="rgb(214, 210, 178)" x="568" y="305">1</text><text fill="rgb(218, 210, 178)" x="921" y="535">1</text><text fill="rgb(93, 131, 133)" x="917" y="543">0</text><text fill="rgb(222, 213, 181)" x="959" y="539">0</text><text fill="rgb(223, 215, 182)" x="900" y="537">0</text><text fill="rgb(45, 82, 107)" x="797" y="527">1</text><text fill="rgb(107, 156, 150)" x="730" y="477">1</text><text fill="rgb(212, 206, 178)" x="894" y="501">0</text><text fill="rgb(225, 219, 187)" x="905" y="503">0</text><text fill="rgb(220, 215, 183)" x="868" y="537">0</text><text fill="rgb(32, 39, 62)" x="839" y="555">1</text><text fill="rgb(45, 77, 102)" x="831" y="539">0</text><text fill="rgb(218, 213, 183)" x="763" y="483">0</text><text fill="rgb(222, 218, 186)" x="691" y="435">0</text><text fill="rgb(109, 151, 141)" x="940" y="553">1</text><text fill="rgb(218, 210, 178)" x="993" y="519">0</text><text fill="rgb(212, 209, 181)" x="963" y="499">1</text><text fill="rgb(217, 213, 184)" x="757" y="479">1</text><text fill="rgb(213, 205, 172)" x="991" y="507">0</text><text fill="rgb(60, 96, 111)" x="823" y="523">0</text><text fill="rgb(221, 216, 187)" x="816" y="513">1</text><text fill="rgb(223, 217, 187)" x="867" y="531">0</text><text fill="rgb(219, 210, 177)" x="915" y="531">0</text><text fill="rgb(38, 70, 95)" x="886" y="581">1</text><text fill="rgb(49, 76, 98)" x="826" y="541">1</text><text fill="rgb(221, 214, 185)" x="860" y="521">1</text><text fill="rgb(195, 204, 178)" x="808" y="529">0</text><text fill="rgb(114, 163, 155)" x="743" y="491">1</text><text fill="rgb(211, 206, 171)" x="623" y="379">0</text><text fill="rgb(225, 219, 190)" x="771" y="499">0</text><text fill="rgb(172, 192, 172)" x="772" y="505">0</text><text fill="rgb(43, 73, 99)" x="866" y="557">1</text><text fill="rgb(42, 79, 103)" x="763" y="515">0</text><text fill="rgb(110, 161, 154)" x="725" y="479">1</text><text fill="rgb(218, 212, 181)" x="902" y="517">0</text><text fill="rgb(108, 155, 150)" x="796" y="521">0</text><text fill="rgb(115, 164, 153)" x="727" y="491">1</text><text fill="rgb(58, 88, 105)" x="664" y="433">1</text><text fill="rgb(149, 175, 162)" x="723" y="467">0</text><text fill="rgb(110, 147, 138)" x="909" y="559">0</text><text fill="rgb(218, 213, 180)" x="893" y="527">0</text><text fill="rgb(119, 168, 160)" x="821" y="543">1</text><text fill="rgb(215, 210, 178)" x="785" y="487">0</text><text fill="rgb(217, 212, 180)" x="734" y="469">1</text><text fill="rgb(131, 175, 164)" x="822" y="517">1</text><text fill="rgb(116, 166, 156)" x="795" y="515">0</text><text fill="rgb(46, 82, 104)" x="911" y="571">0</text><text fill="rgb(107, 155, 153)" x="778" y="509">0</text><text fill="rgb(217, 210, 177)" x="974" y="501">0</text><text fill="rgb(55, 89, 112)" x="927" y="571">0</text><text fill="rgb(219, 211, 180)" x="923" y="515">1</text><text fill="rgb(221, 214, 182)" x="912" y="513">0</text><text fill="rgb(119, 161, 149)" x="914" y="557">1</text><text fill="rgb(226, 219, 186)" x="938" y="509">1</text><text fill="rgb(216, 211, 178)" x="797" y="495">1</text><text fill="rgb(43, 78, 101)" x="905" y="567">1</text><text fill="rgb(220, 214, 181)" x="902" y="549">0</text><text fill="rgb(214, 212, 181)" x="567" y="299">0</text><text fill="rgb(91, 133, 139)" x="919" y="555">0</text><text fill="rgb(225, 217, 185)" x="896" y="513">0</text><text fill="rgb(225, 220, 190)" x="775" y="491">0</text><text fill="rgb(218, 214, 184)" x="675" y="435">0</text><text fill="rgb(106, 151, 146)" x="921" y="567">0</text><text fill="rgb(118, 163, 150)" x="845" y="527">0</text><text fill="rgb(215, 205, 172)" x="977" y="519">0</text><text fill="rgb(31, 53, 80)" x="833" y="551">0</text><text fill="rgb(220, 216, 183)" x="692" y="441">1</text><text fill="rgb(28, 30, 55)" x="863" y="571">1</text><text fill="rgb(99, 140, 142)" x="931" y="563">0</text><text fill="rgb(114, 162, 157)" x="766" y="501">1</text><text fill="rgb(121, 167, 153)" x="624" y="385">1</text><text fill="rgb(215, 211, 180)" x="635" y="387">1</text><text fill="rgb(220, 216, 184)" x="894" y="533">0</text><text fill="rgb(86, 130, 133)" x="663" y="427">1</text><text fill="rgb(220, 211, 178)" x="930" y="525">0</text><text fill="rgb(216, 207, 179)" x="914" y="525">1</text><text fill="rgb(217, 210, 177)" x="960" y="545">0</text><text fill="rgb(32, 42, 64)" x="889" y="567">0</text><text fill="rgb(178, 191, 165)" x="604" y="361">1</text><text fill="rgb(102, 150, 148)" x="786" y="525">0</text><text fill="rgb(182, 193, 166)" x="927" y="539">0</text><text fill="rgb(220, 211, 178)" x="996" y="505">0</text><text fill="rgb(209, 198, 165)" x="931" y="531">1</text><text fill="rgb(220, 217, 188)" x="686" y="437">1</text><text fill="rgb(125, 170, 160)" x="732" y="489">1</text><text fill="rgb(224, 216, 185)" x="899" y="531">1</text><text fill="rgb(220, 215, 186)" x="849" y="519">1</text><text fill="rgb(77, 107, 118)" x="928" y="545">0</text><text fill="rgb(194, 201, 174)" x="817" y="519">0</text><text fill="rgb(219, 214, 182)" x="891" y="547">0</text><text fill="rgb(222, 216, 184)" x="831" y="507">1</text><text fill="rgb(28, 37, 60)" x="874" y="573">0</text><text fill="rgb(112, 163, 156)" x="638" y="405">1</text><text fill="rgb(190, 196, 176)" x="908" y="553">1</text><text fill="rgb(43, 75, 99)" x="892" y="585">0</text><text fill="rgb(215, 209, 174)" x="895" y="539">0</text><text fill="rgb(50, 69, 91)" x="688" y="449">1</text><text fill="rgb(88, 135, 139)" x="683" y="451">1</text><text fill="rgb(224, 215, 186)" x="921" y="503">0</text><text fill="rgb(220, 215, 186)" x="867" y="499">0</text><text fill="rgb(116, 159, 147)" x="833" y="519">0</text><text fill="rgb(42, 71, 98)" x="845" y="559">1</text><text fill="rgb(209, 206, 174)" x="595" y="339">1</text><text fill="rgb(215, 210, 180)" x="870" y="517">0</text><text fill="rgb(219, 215, 182)" x="897" y="519">0</text><text fill="rgb(219, 213, 181)" x="784" y="481">0</text><text fill="rgb(222, 217, 186)" x="674" y="429">0</text><text fill="rgb(119, 163, 152)" x="819" y="531">1</text><text fill="rgb(220, 212, 179)" x="909" y="527">0</text><text fill="rgb(117, 163, 156)" x="823" y="555">0</text><text fill="rgb(39, 75, 104)" x="738" y="493">0</text><text fill="rgb(220, 212, 182)" x="837" y="511">0</text><text fill="rgb(51, 86, 110)" x="914" y="589">0</text><text fill="rgb(216, 214, 184)" x="756" y="473">0</text><text fill="rgb(219, 211, 177)" x="940" y="521">1</text><text fill="rgb(159, 167, 155)" x="832" y="513">0</text><text fill="rgb(224, 216, 184)" x="948" y="505">0</text><text fill="rgb(221, 212, 182)" x="891" y="515">1</text><text fill="rgb(219, 212, 179)" x="958" y="501">1</text><text fill="rgb(29, 41, 67)" x="856" y="561">0</text><text fill="rgb(104, 152, 146)" x="849" y="551">1</text><text fill="rgb(217, 214, 179)" x="679" y="427">1</text><text fill="rgb(111, 160, 152)" x="815" y="539">0</text><text fill="rgb(222, 217, 187)" x="907" y="547">1</text><text fill="rgb(114, 161, 153)" x="886" y="549">0</text><text fill="rgb(66, 104, 120)" x="900" y="569">0</text><text fill="rgb(35, 47, 73)" x="827" y="547">0</text><text fill="rgb(218, 213, 180)" x="890" y="541">0</text><text fill="rgb(225, 219, 190)" x="846" y="501">0</text><text fill="rgb(43, 73, 99)" x="906" y="573">1</text><text fill="rgb(222, 215, 184)" x="880" y="513">0</text><text fill="rgb(124, 168, 156)" x="829" y="527">1</text><text fill="rgb(51, 87, 103)" x="936" y="561">0</text><text fill="rgb(214, 209, 179)" x="884" y="537">0</text><text fill="rgb(52, 84, 109)" x="909" y="591">1</text><text fill="rgb(64, 87, 104)" x="749" y="463">0</text><text fill="rgb(44, 82, 107)" x="882" y="557">0</text><text fill="rgb(131, 178, 166)" x="735" y="475">1</text><text fill="rgb(45, 87, 111)" x="858" y="541">1</text><text fill="rgb(31, 47, 73)" x="862" y="565">0</text><text fill="rgb(78, 112, 122)" x="923" y="547">0</text><text fill="rgb(120, 165, 155)" x="821" y="511">0</text><text fill="rgb(113, 153, 140)" x="950" y="549">0</text><text fill="rgb(90, 121, 128)" x="748" y="489">1</text><text fill="rgb(206, 196, 165)" x="1001" y="503">0</text><text fill="rgb(216, 207, 175)" x="982" y="517">0</text><text fill="rgb(222, 216, 186)" x="906" y="541">0</text><text fill="rgb(122, 157, 140)" x="945" y="551">0</text><text fill="rgb(76, 104, 115)" x="948" y="537">1</text><text fill="rgb(28, 36, 64)" x="855" y="555">1</text><text fill="rgb(119, 166, 153)" x="899" y="563">1</text><text fill="rgb(221, 216, 185)" x="848" y="513">0</text><text fill="rgb(131, 168, 153)" x="912" y="545">1</text><text fill="rgb(224, 218, 187)" x="843" y="515">1</text><text fill="rgb(226, 221, 190)" x="916" y="505">0</text><text fill="rgb(218, 210, 177)" x="946" y="525">0</text><text fill="rgb(221, 212, 178)" x="951" y="523">0</text><text fill="rgb(30, 36, 58)" x="840" y="561">0</text><text fill="rgb(217, 208, 175)" x="972" y="521">0</text><text fill="rgb(223, 216, 183)" x="943" y="507">1</text><text fill="rgb(59, 99, 114)" x="777" y="503">1</text><text fill="rgb(144, 175, 159)" x="844" y="521">1</text><text fill="rgb(216, 213, 186)" x="603" y="355">1</text><text fill="rgb(222, 215, 184)" x="928" y="513">1</text><text fill="rgb(218, 215, 184)" x="673" y="423">1</text><text fill="rgb(222, 216, 184)" x="873" y="503">1</text><text fill="rgb(216, 212, 180)" x="709" y="447">1</text><text fill="rgb(91, 118, 124)" x="839" y="523">1</text><text fill="rgb(223, 219, 186)" x="751" y="475">0</text><text fill="rgb(62, 86, 104)" x="801" y="519">1</text><text fill="rgb(222, 216, 186)" x="681" y="439">1</text><text fill="rgb(29, 37, 61)" x="881" y="583">0</text><text fill="rgb(43, 77, 101)" x="910" y="565">0</text><text fill="rgb(133, 143, 131)" x="806" y="485">1</text><text fill="rgb(216, 212, 180)" x="716" y="457">0</text><text fill="rgb(223, 215, 186)" x="917" y="511">0</text><text fill="rgb(220, 215, 184)" x="738" y="461">1</text><text fill="rgb(105, 148, 146)" x="842" y="541">1</text><text fill="rgb(46, 76, 99)" x="912" y="577">1</text><text fill="rgb(217, 210, 180)" x="879" y="507">1</text><text fill="rgb(220, 216, 186)" x="866" y="525">1</text><text fill="rgb(167, 174, 158)" x="641" y="391">0</text><text fill="rgb(62, 98, 116)" x="938" y="541">0</text><text fill="rgb(119, 162, 156)" x="724" y="473">1</text><text fill="rgb(86, 127, 132)" x="929" y="551">1</text><text fill="rgb(221, 215, 186)" x="871" y="523">1</text><text fill="rgb(218, 213, 181)" x="801" y="487">0</text><text fill="rgb(93, 140, 141)" x="851" y="531">0</text><text fill="rgb(225, 220, 191)" x="898" y="525">1</text><text fill="rgb(43, 67, 91)" x="885" y="575">0</text><text fill="rgb(214, 210, 179)" x="812" y="521">0</text><text fill="rgb(122, 164, 152)" x="846" y="533">1</text><text fill="rgb(153, 179, 160)" x="617" y="375">0</text><text fill="rgb(215, 206, 174)" x="964" y="537">1</text><text fill="rgb(220, 216, 185)" x="654" y="405">1</text><text fill="rgb(216, 212, 182)" x="808" y="497">0</text><text fill="rgb(218, 210, 177)" x="945" y="519">1</text><text fill="rgb(178, 185, 165)" x="787" y="499">0</text><text fill="rgb(224, 215, 184)" x="944" y="513">1</text><text fill="rgb(211, 207, 175)" x="780" y="489">1</text><text fill="rgb(112, 158, 153)" x="848" y="545">0</text><text fill="rgb(101, 130, 137)" x="865" y="551">0</text><text fill="rgb(47, 86, 111)" x="733" y="495">1</text><text fill="rgb(52, 96, 117)" x="744" y="497">0</text><text fill="rgb(222, 217, 184)" x="926" y="501">1</text><text fill="rgb(202, 201, 175)" x="856" y="529">0</text><text fill="rgb(221, 211, 178)" x="953" y="535">1</text><text fill="rgb(220, 213, 182)" x="869" y="511">1</text><text fill="rgb(215, 209, 178)" x="779" y="483">0</text><text fill="rgb(50, 82, 98)" x="937" y="567">1</text><text fill="rgb(135, 144, 133)" x="872" y="497">0</text><text fill="rgb(219, 210, 176)" x="960" y="513">1</text><text fill="rgb(55, 99, 117)" x="852" y="537">0</text><text fill="rgb(83, 108, 117)" x="1006" y="501">1</text><text fill="rgb(111, 122, 117)" x="772" y="473">0</text><text fill="rgb(222, 216, 184)" x="774" y="485">1</text><text fill="rgb(224, 218, 188)" x="698" y="445">0</text><text fill="rgb(33, 45, 68)" x="893" y="559">0</text><text fill="rgb(181, 183, 164)" x="726" y="453">0</text><text fill="rgb(102, 132, 138)" x="857" y="535">0</text><text fill="rgb(207, 205, 177)" x="669" y="431">0</text><text fill="rgb(215, 209, 178)" x="900" y="505">1</text><text fill="rgb(213, 210, 178)" x="703" y="443">0</text><text fill="rgb(220, 215, 187)" x="858" y="509">0</text><text fill="rgb(122, 159, 148)" x="840" y="529">1</text><text fill="rgb(66, 104, 118)" x="802" y="525">1</text><text fill="rgb(217, 212, 180)" x="793" y="503">1</text><text fill="rgb(217, 211, 178)" x="910" y="533">0</text><text fill="rgb(126, 173, 160)" x="765" y="495">0</text><text fill="rgb(152, 159, 149)" x="755" y="467">0</text><text fill="rgb(37, 49, 74)" x="829" y="559">1</text><text fill="rgb(212, 202, 169)" x="1002" y="509">1</text><text fill="rgb(224, 219, 187)" x="745" y="471">0</text><text fill="rgb(180, 186, 165)" x="666" y="413">1</text><text fill="rgb(117, 164, 156)" x="835" y="531">0</text><text fill="rgb(140, 171, 155)" x="969" y="535">0</text><text fill="rgb(218, 211, 180)" x="964" y="505">1</text><text fill="rgb(42, 79, 105)" x="761" y="503">1</text><text fill="rgb(54, 89, 114)" x="870" y="549">1</text><text fill="rgb(28, 40, 61)" x="890" y="573">1</text><text fill="rgb(217, 213, 182)" x="721" y="455">1</text><text fill="rgb(221, 214, 182)" x="949" y="511">0</text><text fill="rgb(71, 104, 118)" x="885" y="543">0</text><text fill="rgb(80, 127, 136)" x="810" y="541">1</text><text fill="rgb(216, 211, 179)" x="767" y="475">0</text><text fill="rgb(216, 209, 177)" x="886" y="517">1</text><text fill="rgb(49, 85, 112)" x="791" y="523">1</text><text fill="rgb(224, 219, 191)" x="883" y="531">0</text><text fill="rgb(217, 210, 176)" x="919" y="523">0</text><text fill="rgb(214, 210, 179)" x="609" y="359">1</text><text fill="rgb(223, 213, 180)" x="913" y="519">0</text><text fill="rgb(113, 158, 149)" x="897" y="551">1</text><text fill="rgb(115, 164, 154)" x="740" y="473">1</text><text fill="rgb(120, 169, 158)" x="731" y="483">0</text><text fill="rgb(120, 168, 156)" x="651" y="419">0</text><text fill="rgb(216, 211, 179)" x="631" y="395">1</text><text fill="rgb(215, 210, 182)" x="818" y="493">0</text><text fill="rgb(214, 210, 178)" x="596" y="345">1</text><text fill="rgb(219, 213, 179)" x="916" y="537">1</text><text fill="rgb(125, 136, 126)" x="615" y="363">0</text><text fill="rgb(180, 190, 167)" x="903" y="555">0</text><text fill="rgb(119, 167, 155)" x="726" y="485">0</text><text fill="rgb(37, 61, 86)" x="707" y="467">0</text><text fill="rgb(122, 143, 143)" x="788" y="505">0</text><text fill="rgb(216, 209, 179)" x="781" y="495">1</text><text fill="rgb(215, 208, 178)" x="889" y="503">0</text><text fill="rgb(216, 208, 174)" x="987" y="515">0</text><text fill="rgb(199, 198, 170)" x="588" y="329">0</text><text fill="rgb(137, 157, 151)" x="696" y="465">1</text><text fill="rgb(111, 151, 140)" x="941" y="559">0</text><text fill="rgb(219, 214, 184)" x="776" y="497">0</text><text fill="rgb(33, 39, 63)" x="898" y="589">1</text><text fill="rgb(208, 206, 177)" x="616" y="369">0</text><text fill="rgb(224, 217, 186)" x="910" y="501">0</text><text fill="rgb(221, 215, 181)" x="955" y="515">1</text><text fill="rgb(226, 217, 185)" x="901" y="511">0</text><text fill="rgb(210, 206, 177)" x="879" y="539">1</text><text fill="rgb(44, 81, 107)" x="773" y="511">0</text><text fill="rgb(215, 210, 178)" x="576" y="321">1</text><text fill="rgb(217, 212, 181)" x="864" y="513">0</text><text fill="rgb(217, 213, 182)" x="856" y="497">0</text><text fill="rgb(221, 215, 182)" x="630" y="389">0</text><text fill="rgb(42, 83, 109)" x="708" y="473">1</text><text fill="rgb(211, 209, 178)" x="728" y="465">0</text><text fill="rgb(218, 212, 183)" x="877" y="527">0</text><text fill="rgb(214, 212, 180)" x="629" y="383">1</text><text fill="rgb(225, 218, 184)" x="942" y="501">0</text><text fill="rgb(216, 213, 179)" x="569" y="311">1</text><text fill="rgb(218, 213, 183)" x="715" y="451">1</text><text fill="rgb(224, 218, 187)" x="840" y="497">1</text><text fill="rgb(33, 45, 70)" x="893" y="591">1</text><text fill="rgb(219, 214, 188)" x="862" y="501">1</text><text fill="rgb(221, 215, 182)" x="907" y="515">1</text><text fill="rgb(42, 81, 106)" x="756" y="505">1</text><text fill="rgb(43, 80, 105)" x="757" y="511">1</text><text fill="rgb(111, 158, 148)" x="841" y="535">0</text><text fill="rgb(120, 162, 152)" x="934" y="549">0</text><text fill="rgb(117, 132, 135)" x="695" y="459">1</text><text fill="rgb(215, 210, 179)" x="876" y="521">0</text><text fill="rgb(121, 165, 157)" x="924" y="553">1</text><text fill="rgb(80, 118, 126)" x="827" y="515">1</text><text fill="rgb(218, 208, 174)" x="942" y="533">0</text><text fill="rgb(221, 214, 185)" x="854" y="517">1</text><text fill="rgb(71, 97, 114)" x="861" y="559">1</text><text fill="rgb(222, 216, 187)" x="829" y="495">0</text><text fill="rgb(216, 208, 175)" x="985" y="503">1</text><text fill="rgb(50, 92, 117)" x="775" y="523">1</text><text fill="rgb(29, 41, 64)" x="879" y="571">1</text><text fill="rgb(222, 212, 182)" x="927" y="507">0</text><text fill="rgb(219, 213, 181)" x="863" y="539">1</text><text fill="rgb(120, 165, 159)" x="925" y="559">1</text><text fill="rgb(36, 68, 94)" x="901" y="575">0</text><text fill="rgb(213, 209, 176)" x="575" y="315">0</text><text fill="rgb(47, 83, 108)" x="853" y="543">1</text><text fill="rgb(41, 71, 98)" x="859" y="547">0</text><text fill="rgb(87, 130, 135)" x="917" y="575">0</text><text fill="rgb(146, 169, 152)" x="951" y="555">0</text><text fill="rgb(169, 167, 143)" x="938" y="573">0</text><text fill="rgb(47, 76, 101)" x="908" y="585">1</text><text fill="rgb(215, 212, 183)" x="819" y="499">1</text><text fill="rgb(100, 113, 120)" x="706" y="461">0</text><text fill="rgb(218, 207, 174)" x="957" y="527">1</text><text fill="rgb(99, 146, 145)" x="784" y="513">0</text><text fill="rgb(111, 162, 155)" x="719" y="475">1</text><text fill="rgb(213, 206, 172)" x="947" y="531">1</text><text fill="rgb(115, 162, 154)" x="847" y="539">0</text><text fill="rgb(193, 191, 161)" x="970" y="541">0</text><text fill="rgb(52, 83, 101)" x="932" y="569">1</text><text fill="rgb(33, 39, 62)" x="897" y="583">1</text><text fill="rgb(214, 208, 175)" x="875" y="515">1</text><text fill="rgb(214, 210, 177)" x="739" y="467">1</text><text fill="rgb(215, 211, 179)" x="889" y="535">1</text><text fill="rgb(108, 157, 154)" x="820" y="537">1</text><text fill="rgb(218, 212, 183)" x="852" y="505">0</text><text fill="rgb(218, 211, 180)" x="884" y="505">1</text><text fill="rgb(210, 202, 168)" x="997" y="511">0</text><text fill="rgb(228, 221, 190)" x="932" y="505">0</text><text fill="rgb(79, 120, 132)" x="803" y="531">1</text><text fill="rgb(125, 162, 149)" x="944" y="545">1</text><text fill="rgb(220, 216, 184)" x="750" y="469">1</text><text fill="rgb(210, 208, 180)" x="752" y="481">1</text><text fill="rgb(46, 83, 108)" x="805" y="543">1</text><text fill="rgb(29, 36, 56)" x="864" y="577">1</text><text fill="rgb(54, 98, 120)" x="701" y="463">0</text><text fill="rgb(44, 71, 94)" x="907" y="579">1</text><text fill="rgb(218, 212, 183)" x="807" y="491">1</text><text fill="rgb(215, 207, 174)" x="956" y="553">0</text><text fill="rgb(134, 173, 161)" x="913" y="551">0</text><text fill="rgb(218, 215, 185)" x="911" y="539">1</text><text fill="rgb(107, 152, 146)" x="898" y="557">0</text><text fill="rgb(89, 139, 143)" x="760" y="497">1</text><text fill="rgb(221, 213, 179)" x="908" y="521">0</text><text fill="rgb(215, 210, 177)" x="799" y="507">1</text><text fill="rgb(61, 89, 105)" x="767" y="507">0</text><text fill="rgb(32, 42, 66)" x="869" y="575">0</text><text fill="rgb(109, 157, 148)" x="597" y="351">1</text><text fill="rgb(112, 158, 151)" x="741" y="479">0</text><text fill="rgb(218, 213, 182)" x="862" y="533">1</text><text fill="rgb(215, 211, 181)" x="869" y="543">1</text><text fill="rgb(61, 99, 117)" x="780" y="521">0</text><text fill="rgb(30, 40, 58)" x="846" y="565">0</text><text fill="rgb(153, 165, 156)" x="952" y="497">1</text><text fill="rgb(217, 211, 181)" x="859" y="515">1</text><text fill="rgb(28, 34, 53)" x="880" y="577">1</text><text fill="rgb(170, 175, 158)" x="915" y="595">1</text><text fill="rgb(223, 217, 184)" x="888" y="529">0</text><text fill="rgb(27, 32, 55)" x="838" y="549">1</text><text fill="rgb(218, 214, 183)" x="729" y="471">1</text><text fill="rgb(220, 215, 184)" x="851" y="499">0</text><text fill="rgb(122, 132, 130)" x="720" y="449">1</text><text fill="rgb(46, 79, 105)" x="793" y="535">0</text><text fill="rgb(219, 211, 177)" x="904" y="529">0</text><text fill="rgb(27, 39, 63)" x="878" y="565">0</text><text fill="rgb(221, 217, 186)" x="770" y="493">0</text><text fill="rgb(215, 211, 179)" x="655" y="411">1</text><text fill="rgb(223, 214, 182)" x="975" y="507">1</text><text fill="rgb(219, 214, 181)" x="656" y="417">1</text><text fill="rgb(48, 78, 98)" x="928" y="577">1</text><text fill="rgb(66, 105, 116)" x="717" y="463">1</text><text fill="rgb(36, 41, 66)" x="904" y="593">1</text><text fill="rgb(135, 154, 147)" x="813" y="527">0</text><text fill="rgb(114, 157, 146)" x="935" y="555">1</text><text fill="rgb(61, 96, 115)" x="837" y="543">1</text><text fill="rgb(221, 215, 185)" x="792" y="497">1</text><text fill="rgb(56, 91, 113)" x="739" y="499">0</text><text fill="rgb(99, 124, 132)" x="904" y="561">0</text><text fill="rgb(219, 214, 181)" x="805" y="511">0</text><text fill="rgb(77, 118, 127)" x="892" y="553">1</text><text fill="rgb(217, 213, 181)" x="786" y="493">1</text><text fill="rgb(36, 67, 91)" x="902" y="581">1</text><text fill="rgb(222, 216, 185)" x="853" y="511">1</text><text fill="rgb(220, 212, 178)" x="970" y="509">1</text><text fill="rgb(214, 207, 176)" x="794" y="509">1</text><text fill="rgb(31, 34, 58)" x="858" y="573">0</text><text fill="rgb(50, 83, 108)" x="774" y="517">0</text><text fill="rgb(219, 212, 181)" x="872" y="529">1</text><text fill="rgb(45, 78, 107)" x="768" y="513">1</text><text fill="rgb(209, 204, 171)" x="668" y="425">0</text><text fill="rgb(214, 207, 172)" x="955" y="547">1</text><text fill="rgb(226, 221, 191)" x="699" y="451">0</text><text fill="rgb(218, 214, 184)" x="680" y="433">1</text><text fill="rgb(222, 215, 182)" x="918" y="517">1</text><text fill="rgb(220, 215, 182)" x="768" y="481">1</text><text fill="rgb(218, 212, 181)" x="697" y="439">1</text><text fill="rgb(222, 215, 184)" x="857" y="503">0</text><text fill="rgb(89, 125, 122)" x="942" y="565">0</text><text fill="rgb(42, 79, 103)" x="762" y="509">0</text><text fill="rgb(222, 216, 187)" x="911" y="507">0</text><text fill="rgb(113, 150, 148)" x="872" y="561">0</text><text fill="rgb(120, 165, 157)" x="637" y="399">0</text><text fill="rgb(207, 205, 177)" x="826" y="509">1</text><text fill="rgb(218, 210, 179)" x="926" y="533">0</text><text fill="rgb(224, 220, 188)" x="705" y="455">1</text><text fill="rgb(227, 220, 189)" x="947" y="499">1</text><text fill="rgb(219, 213, 182)" x="906" y="509">0</text><text fill="rgb(136, 170, 154)" x="610" y="365">1</text><text fill="rgb(134, 169, 154)" x="932" y="537">0</text><text fill="rgb(226, 217, 185)" x="954" y="509">1</text><text fill="rgb(33, 42, 67)" x="896" y="577">1</text><text fill="rgb(158, 173, 160)" x="789" y="511">0</text><text fill="rgb(39, 69, 94)" x="844" y="553">1</text><text fill="rgb(195, 202, 176)" x="747" y="483">0</text><text fill="rgb(198, 192, 160)" x="990" y="501">0</text><text fill="rgb(222, 216, 184)" x="796" y="489">0</text><text fill="rgb(29, 46, 72)" x="854" y="549">0</text><text fill="rgb(218, 212, 183)" x="861" y="527">0</text><text fill="rgb(49, 79, 101)" x="913" y="583">0</text><text fill="rgb(86, 115, 123)" x="860" y="553">1</text><text fill="rgb(46, 83, 109)" x="750" y="501">1</text><text fill="rgb(213, 204, 172)" x="874" y="509">0</text><text fill="rgb(216, 206, 174)" x="979" y="531">1</text><text fill="rgb(76, 116, 123)" x="754" y="493">1</text><text fill="rgb(216, 211, 179)" x="762" y="477">0</text><text fill="rgb(219, 210, 177)" x="992" y="513">0</text><text fill="rgb(185, 191, 168)" x="965" y="543">0</text><text fill="rgb(219, 215, 184)" x="815" y="507">0</text><text fill="rgb(53, 82, 100)" x="933" y="575">0</text><text fill="rgb(30, 43, 68)" x="852" y="569">0</text><text fill="rgb(49, 81, 102)" x="919" y="587">1</text><text fill="rgb(49, 84, 112)" x="811" y="547">0</text><text fill="rgb(222, 217, 189)" x="811" y="515">1</text><text fill="rgb(122, 163, 153)" x="618" y="381">1</text><text fill="rgb(222, 216, 185)" x="802" y="493">1</text><text fill="rgb(219, 216, 184)" x="648" y="401">0</text><text fill="rgb(215, 214, 184)" x="823" y="491">1</text><text fill="rgb(51, 91, 113)" x="702" y="469">0</text><text fill="rgb(220, 211, 176)" x="961" y="519">0</text><text fill="rgb(207, 208, 181)" x="834" y="493">1</text><text fill="rgb(221, 215, 185)" x="863" y="507">0</text><text fill="rgb(224, 217, 184)" x="803" y="499">1</text><text fill="rgb(31, 39, 60)" x="875" y="579">1</text><text fill="rgb(42, 66, 93)" x="851" y="563">1</text><text fill="rgb(149, 178, 157)" x="818" y="525">0</text><text fill="rgb(213, 208, 178)" x="896" y="545">1</text><text fill="rgb(218, 209, 175)" x="981" y="511">0</text><text fill="rgb(214, 204, 170)" x="941" y="527">1</text><text fill="rgb(218, 213, 182)" x="847" y="507">0</text><text fill="rgb(113, 160, 154)" x="836" y="537">0</text><text fill="rgb(217, 214, 182)" x="676" y="441">1</text><text fill="rgb(215, 214, 181)" x="560" y="289">1</text><text fill="rgb(33, 45, 67)" x="903" y="587">1</text><text fill="rgb(143, 153, 142)" x="899" y="499">0</text><text fill="rgb(220, 212, 180)" x="887" y="523">1</text><text fill="rgb(219, 214, 182)" x="882" y="525">0</text><text fill="rgb(221, 215, 181)" x="934" y="517">0</text><text fill="rgb(219, 214, 184)" x="959" y="507">1</text><text fill="rgb(220, 213, 180)" x="965" y="511">1</text><text fill="rgb(215, 212, 179)" x="764" y="489">0</text><text fill="rgb(92, 139, 143)" x="850" y="557">1</text><text fill="rgb(74, 105, 120)" x="871" y="555">0</text><text fill="rgb(217, 210, 175)" x="925" y="527">0</text><text fill="rgb(219, 212, 180)" x="924" y="521">1</text><text fill="rgb(221, 215, 184)" x="842" y="509">0</text><text fill="rgb(99, 118, 124)" x="924" y="585">1</text><text fill="rgb(115, 163, 158)" x="721" y="487">1</text><text fill="rgb(36, 54, 79)" x="884" y="569">1</text><text fill="rgb(216, 212, 180)" x="761" y="471">0</text><text fill="rgb(85, 122, 128)" x="718" y="469">0</text><text fill="rgb(53, 92, 117)" x="830" y="533">1</text><text fill="rgb(215, 211, 182)" x="873" y="535">1</text><text fill="rgb(115, 164, 151)" x="783" y="507">1</text><text fill="rgb(217, 210, 179)" x="890" y="509">1</text><text fill="rgb(217, 212, 183)" x="744" y="465">1</text><text fill="rgb(218, 210, 177)" x="956" y="521">1</text><text fill="rgb(192, 198, 172)" x="657" y="423">0</text><text fill="rgb(194, 198, 168)" x="584" y="337">0</text><text fill="rgb(219, 213, 180)" x="732" y="457">0</text><text fill="rgb(216, 207, 173)" x="920" y="529">1</text><text fill="rgb(207, 206, 178)" x="622" y="373">1</text><text fill="rgb(223, 216, 184)" x="935" y="523">1</text><text fill="rgb(213, 209, 177)" x="864" y="545">0</text><text fill="rgb(142, 157, 154)" x="700" y="457">0</text><text fill="rgb(217, 213, 183)" x="791" y="491">0</text><text fill="rgb(42, 72, 96)" x="883" y="563">0</text><text fill="rgb(221, 215, 185)" x="855" y="523">1</text><text fill="rgb(63, 91, 106)" x="876" y="553">0</text><text fill="rgb(220, 214, 183)" x="825" y="503">0</text><text fill="rgb(116, 156, 148)" x="590" y="341">1</text><text fill="rgb(187, 192, 169)" x="670" y="437">1</text><text fill="rgb(211, 209, 177)" x="746" y="477">1</text><text fill="rgb(213, 211, 182)" x="812" y="489">0</text><text fill="rgb(221, 217, 188)" x="710" y="453">0</text><text fill="rgb(209, 206, 173)" x="583" y="331">0</text><text fill="rgb(114, 162, 155)" x="650" y="413">0</text><text fill="rgb(165, 175, 164)" x="800" y="513">0</text><text fill="rgb(186, 188, 162)" x="947" y="563">1</text><text fill="rgb(100, 146, 143)" x="742" y="485">0</text><text fill="rgb(105, 153, 152)" x="822" y="549">1</text><text fill="rgb(221, 214, 184)" x="809" y="503">0</text><text fill="rgb(123, 165, 153)" x="782" y="501">0</text><text fill="rgb(107, 145, 142)" x="888" y="561">0</text><text fill="rgb(221, 212, 179)" x="969" y="503">1</text><text fill="rgb(46, 75, 103)" x="817" y="551">0</text><text fill="rgb(47, 84, 110)" x="751" y="507">1</text><text fill="rgb(218, 212, 181)" x="901" y="543">1</text><text fill="rgb(47, 85, 112)" x="745" y="503">0</text><text fill="rgb(33, 59, 88)" x="832" y="545">1</text><text fill="rgb(118, 166, 157)" x="682" y="445">0</text><text fill="rgb(40, 70, 96)" x="881" y="551">1</text><text fill="rgb(39, 74, 100)" x="816" y="545">0</text><text fill="rgb(225, 219, 190)" x="841" y="503">1</text><text fill="rgb(213, 205, 172)" x="986" y="509">1</text></g></svg>