<?xml version="1.0" encoding="UTF-8" standalone="no"?>
<!-- Created with Inkscape (http://www.inkscape.org/) -->

<svg
   xmlns:dc="http://purl.org/dc/elements/1.1/"
   xmlns:cc="http://creativecommons.org/ns#"
   xmlns:rdf="http://www.w3.org/1999/02/22-rdf-syntax-ns#"
   xmlns:svg="http://www.w3.org/2000/svg"
   xmlns="http://www.w3.org/2000/svg"
   xmlns:inkscape="http://www.inkscape.org/namespaces/inkscape"
   version="1.1"
   width="267.85715"
   height="62.063633"
   id="svg5020">
  <defs
     id="defs5022" />
  <metadata
     id="metadata5025">
    <rdf:RDF>
      <cc:Work
         rdf:about="">
        <dc:format>image/svg+xml</dc:format>
        <dc:type
           rdf:resource="http://purl.org/dc/dcmitype/StillImage" />
        <dc:title />
      </cc:Work>
    </rdf:RDF>
  </metadata>
  <g
     transform="translate(-263.21429,-455.61609)"
     id="layer1">
    <g
       transform="matrix(0.29598252,0,0,0.29598252,-190.52753,285.0464)"
       id="g4946">
      <g
         transform="translate(2.742066,11.275469)"
         id="g4949">
        <rect
           width="904.9762"
           height="209.68681"
           x="1530.26"
           y="565.00751"
           id="rect4951"
           style="fill:#ffffff;fill-opacity:1;fill-rule:evenodd;stroke:none" />
        <g
           transform="matrix(0.08126422,0,0,0.13269122,2376.3142,756.6933)"
           id="g4953">
          <g
             transform="translate(-18.458305,-9.4203716)"
             id="g4955"
             style="fill:#000000;stroke-linecap:round;stroke-linejoin:round">
            <g
               transform="translate(-13.051995,-11.99017)"
               id="g4957">
              <path
                 d="m 202.93562,-293.06919 c 33.16485,6.46073 42.63154,18.07348 62.13382,34.79306 l 61.58997,52.80283 34.77678,139.286755 c 11.65615,36.52677 56.62716,57.7912598 88.04956,41.84073 l 192.5611,-82.796065 c 35.81593,-15.63014 17.47329,-48.66583 -43.55595,-65.49463 l -194.54521,-65.78172 -62.59337,-52.49734 c -19.50298,-16.72051 -34.34984,-25.95211 -33.70688,-47.37401 l -104.70719,45.21693 1e-5,1e-5 z"
                 inkscape:connector-curvature="0"
                 id="path4959"
                 style="opacity:0;fill:#000000;stroke-width:85" />
              <path
                 d="m 1560.4342,1052.3419 c 1.9987,1.5531 4.7426,2.0982 7.1832,1.4269 1.4775,-0.4064 2.8069,-1.2169 4.1007,-2.038 1.2937,-0.8211 2.5909,-1.6709 4.0395,-2.1704 2.8085,-0.9684 6.0792,-0.4692 8.471,1.2929 l -0.9786,2.5089 -15.25,10.875 -2.875,0.875 -2.5,-1.125 -2.375,-3 0.1842,-8.6453"
                 inkscape:connector-curvature="0"
                 transform="matrix(12.305539,0,0,7.5362937,-18885.459,-8005.8575)"
                 id="path4961"
                 style="fill:#ff0000;fill-opacity:1;stroke:none" />
              <path
                 d="m 253.04784,-300.95664 -104.45108,45.14183 c -2.09603,0.92504 -2.85516,2.77059 -1.81269,4.72612 1.04242,1.95542 3.68392,3.64068 6.59116,4.23745 15.46878,3.02509 24.25803,6.81956 32.13991,11.93172 7.88177,5.11185 14.95073,11.95326 24.92407,20.50404 l 60.12175,51.54639 34.55148,137.622781 c 0.0192,0.0909 0.0423,0.1822 0.069,0.27368 6.23314,19.4401496 21.5108,35.491389 40.74714,44.62923 19.1158,9.080979 41.93804,10.486549 59.24842,1.86022 0.1095,-0.0546 0.21956,-0.0861 0.32844,-0.14163 l 191.79712,-82.503185 c 19.47952,-8.501217 25.11017,-22.893227 16.01301,-37.348242 -9.03054,-14.350814 -31.16849,-27.794814 -62.92871,-36.682294 l -0.63507,-0.23187 -191.7517,-64.98057 -61.10296,-51.2248 c -0.2912,-0.25009 -0.48925,-0.42981 -0.77738,-0.67617 -0.0503,-0.0437 -0.10356,-0.0922 -0.15547,-0.13523 -9.50255,-8.10253 -17.4328,-14.28048 -22.59567,-20.29484 -5.34992,-6.23236 -8.3541,-12.51568 -8.07285,-22.51155 0.0631,-1.89073 -1.69149,-3.93615 -4.37418,-5.19345 -2.68268,-1.25729 -5.76409,-1.47847 -7.87624,-0.54799 z m -5.48396,17.70319 c 1.60873,6.64522 4.29194,11.25228 8.82634,16.53477 5.29399,6.16744 12.08704,11.73152 19.2397,17.69626 l -23.40124,10.09093 c -0.2014,0.0739 -0.39329,0.15662 -0.57476,0.24784 -2.752,1.3822 -2.62466,4.33315 0.28179,6.65471 2.90644,2.32157 7.49133,3.13456 10.24328,1.75232 l 23.56559,-10.16179 38.92159,32.57236 -24.55086,10.58666 c -0.2014,0.0739 -0.39329,0.15662 -0.57476,0.24784 -2.75198,1.38221 -2.62457,4.33323 0.28179,6.65471 2.90644,2.32157 7.49133,3.13456 10.24337,1.7524 l 24.79698,-10.69278 9.49704,7.94016 c 0.93085,0.78275 2.10218,1.43204 3.38646,1.87732 l 45.85154,15.52555 -25.20826,10.87014 c -0.2014,0.0739 -0.39329,0.15662 -0.57476,0.24784 -2.75199,1.3822 -2.62466,4.33315 0.28179,6.65471 2.90642,2.32158 7.49133,3.13456 10.24338,1.7524 l 28.6563,-12.35697 c 1.06085,-0.43923 1.76004,-1.0992 2.09652,-1.91542 l 50.53882,17.14524 -24.22217,10.44492 c -0.17165,0.0642 -0.33604,0.13512 -0.49264,0.21244 -2.77346,1.36352 -2.68402,4.35874 0.19969,6.6901 2.88374,2.33136 7.46999,3.11589 10.24329,1.75233 l 28.6563,-12.35698 c 0.76582,-0.31703 1.27248,-0.798 1.66848,-1.32628 l 48.87088,16.54974 -22.74466,9.8078 c -0.17156,0.0642 -0.33603,0.13511 -0.49265,0.21244 -2.77348,1.3635 -2.68402,4.35874 0.1997,6.6901 2.88366,2.33127 7.46998,3.11589 10.24328,1.75233 l 28.6563,-12.35698 c 0.28184,-0.11664 0.5099,-0.27308 0.74335,-0.42169 l 0.95473,0.29631 c 0.20888,0.083 0.4208,0.16039 0.63499,0.23184 28.82977,7.97173 45.70323,19.52552 52.10148,29.693753 6.39903,10.169115 3.74202,19.870684 -12.51021,26.963244 L 395.21528,12.86006 c -0.11229,0.0448 -0.22182,0.092 -0.32845,0.14163 -13.99521,7.106891 -21.71989,3.550877 -35.71438,-3.097394 -13.99439,-6.6480695 -24.53213,-21.008307 -30.00408,-38.075047 L 294.1953,-167.12827 c -0.23557,-0.97316 -0.8958,-1.95689 -1.89541,-2.8237 l -61.59848,-52.83096 c -9.52919,-8.16993 -16.94691,-15.45986 -26.95838,-21.95298 -6.61588,-4.29076 -12.56363,-6.27914 -22.14455,-9.32313 l 63.4991,-27.69242 z"
                 inkscape:connector-curvature="0"
                 id="path4963"
                 style="fill:#ff0000;stroke:none" />
            </g>
          </g>
        </g>
        <path
           d="m 2372.5472,572.83598 c -5.4284,0 -10.6062,0.91515 -15.4375,2.59375 -1.0975,0.3814 -9.6047,19.3425 -10.75,37.125 9.2826,26.3236 8.6343,29.1042 23.875,30.625 0.4296,-0.2663 0.8274,-0.606 0.9687,-0.6875 0.4079,-0.4016 0.8201,-0.7827 1.2813,-1.125 0.055,-0.041 0.1003,-0.085 0.1562,-0.125 0.1754,-0.1201 0.355,-0.23315 0.5313,-0.34375 0.093,-0.059 0.1869,-0.1306 0.2812,-0.1875 0.041,-0.024 0.084,-0.0385 0.125,-0.0625 0.2305,-0.1345 0.4552,-0.2567 0.6875,-0.375 0.1474,-0.075 0.2893,-0.15025 0.4375,-0.21875 0.2639,-0.1213 0.5393,-0.24045 0.8125,-0.34375 0.1336,-0.05 0.2707,-0.11025 0.4063,-0.15625 0.1447,-0.049 0.2919,-0.082 0.4375,-0.125 0.1372,-0.041 0.2672,-0.088 0.4062,-0.125 0.1468,-0.037 0.2898,-0.0627 0.4375,-0.0937 0.8534,-0.1536 1.1568,-0.18825 2.4375,-0.21875 1.3975,0.026 2.8499,0.29655 4.375,0.84375 6.8812,3.3864 9.3425,13.3429 11.875,20.8125 0.4369,1.5388 0.8508,3.0731 1.2188,4.625 0.03,0.1258 0.064,0.2491 0.094,0.375 0.3992,1.8574 0.7915,3.7404 1.1562,5.625 0.07,0.3626 0.1192,0.73015 0.1875,1.09375 0.05,0.2933 0.1088,0.5814 0.1563,0.875 2.9732,18.36977 1.4179,37.341 -3.4063,55.34375 -0.5015,1.19427 -1.0287,2.11913 -1.8567,2.67456 -1.379,0.8463 -2.3125,2.35714 -2.3125,4.09375 0,2.65787 2.1547,4.8125 4.8125,4.8125 2.7575,0.0211 6.1926,-2.64877 7.5129,-4.67455 0.4524,-0.69538 0.8662,-1.42864 1.25,-2.09375 0.096,-0.176 0.1866,-0.35395 0.2812,-0.53125 8.0163,-14.1782 13.5765,-29.9365 16.0938,-46.6875 0.1937,-1.2557 0.3724,-2.51445 0.5313,-3.78125 0.02,-0.1661 0.043,-0.3338 0.062,-0.5 0.1557,-1.2803 0.2866,-2.584 0.4062,-3.875 0.283,-3.052 0.4857,-6.11145 0.5625,-9.21875 0.028,-1.1321 0.031,-2.26745 0.031,-3.40625 0,-11.517 -1.447,-22.7007 -4.1562,-33.375 -0.3959,-1.5601 -0.8003,-3.11835 -1.25,-4.65625 -4.0439,-13.8309 -10.2609,-26.73475 -18.2188,-38.34375 -3.1472,-4.5912 -6.5437,-8.99695 -10.2188,-13.15625 -0.4087,-0.3039 -0.3683,-0.2784 -0.8437,-0.4375 -4.8181,-1.6699 -10.0239,-2.59375 -15.4375,-2.59375 z"
           inkscape:connector-curvature="0"
           id="path4965"
           style="fill:#4d4d4d;fill-opacity:1;fill-rule:evenodd;stroke:none" />
        <path
           d="m 2227.0543,688.35277 -13.5313,74.84375 20.875,0 c 0.4028,-0.73732 0.4963,-1.12637 0.4688,-1.9375 -0.01,-0.2717 -0.1339,-0.8708 -0.375,-1.3125 -0.5758,-1.1998 -0.6289,-1.80125 -0.8125,-2.71875 -0.1427,-0.8744 -0.2519,-1.7432 -0.3438,-2.625 -0.038,-0.3667 -0.097,-0.72645 -0.125,-1.09375 -0.055,-1.1075 -0.1042,-2.2844 -0.062,-3.3125 0,-5.2796 0.9159,-10.5852 2.9063,-15.6875 2.2135,-5.1905 4.4603,-8.77855 8.2812,-13.15625 -1.2865,-13.4949 -0.9926,-15.86615 -3.9687,-27.03125 -6.5988,-4.305 -8.2103,-5.45335 -13.3125,-5.96875 z"
           inkscape:connector-curvature="0"
           id="path4967"
           style="fill:#000000;fill-opacity:1;stroke:none" />
        <path
           d="m 2334.5856,641.22777 c -5.6649,3.6372 -7.5938,13.0231 -7.5938,19.375 0.2512,9.808 0.095,14.2216 0.062,25.625 0.3507,0.049 0.7088,0.0548 1.0625,0.0937 l 8.2813,0 5.7187,51.375 c 0.3781,3.1971 0.6709,6.7229 0.094,10.625 -0.9453,7.14305 -1.054,7.65435 -2.5,14.875 l 20.7188,0 c 0.7122,-0.83931 1.1875,-1.90923 1.1875,-3.09375 0,-0.8454 -0.213,-1.621 -0.5937,-2.3125 -0.1201,-0.2181 -0.1342,-0.2628 -0.2188,-0.375 -0.099,-0.1315 -0.1688,-0.2489 -0.25,-0.375 -0.6597,-0.971 -1.1776,-1.9789 -1.2187,-2.0625 l 0,-0.0312 c -0.4505,-0.9951 -1.2432,-2.961 -1.0938,-4.25 2.1392,-19.6694 2.2403,-19.82545 5.8438,-37.28125 3.3873,-15.579 4.0547,-32.27565 0.1875,-46.65625 1.0345,-2.0562 1.875,-4.20975 2.5,-6.46875 1.0986,-3.86 0.9562,-7.22305 1.25,-10.65625 0.3371,-3.0072 1.7262,-5.70505 3.7812,-7.71875 -0.067,-0.081 -0.114,-0.2488 -0.2187,-0.25 l -37.0001,-0.4375 z"
           inkscape:connector-curvature="0"
           id="path4969"
           style="fill:#000000;fill-opacity:1;fill-rule:evenodd;stroke:none" />
        <path
           d="m 2276.3602,600.08462 c -31.3913,0.9874 -56.834,23.6066 -60.0937,53.625 4.6937,8.386 10.4848,11.1027 12.1907,11.4396 10.2931,2.0329 10.7091,1.4107 18.903,-2.6896 11.7137,-16.6864 31.0292,-27.8947 53.0939,-28.8438 -1.6116,-4.5895 -2.4688,-9.5029 -2.4688,-14.625 0,-5.1041 0.8679,-10.0182 2.4688,-14.5937 -7.6564,-2.9589 -15.6228,-4.3786 -23.4688,-4.3125 -0.2094,0.01 -0.4162,-0.01 -0.6251,0 z"
           inkscape:connector-curvature="0"
           id="path4971"
           style="fill:#4d4d4d;fill-opacity:1;fill-rule:evenodd;stroke:none" />
        <path
           d="m 2298.459,632.84942 c -21.5407,0.9305 -40.4114,11.9115 -51.847,28.2709 0.4385,17.8292 0.7191,12.9489 0.7191,28.2331 0.6972,4.8725 10.6409,20.4355 15.0859,23.392 l 1.0386,0.6858 c 0.6082,-1.4842 1.1578,-2.9878 1.9212,-4.3869 5.274,-9.6662 14.1281,-17.1816 24.827,-20.8422 l 7.3376,-12.8324 1.2804,-41.5319 c -0.124,-0.3287 -0.3249,-0.8202 -0.4411,-1.1525 z"
           inkscape:connector-curvature="0"
           id="path4973"
           style="fill:#000000;fill-opacity:1;fill-rule:evenodd;stroke:none" />
        <path
           d="m 2298.459,632.94902 c 0.1162,0.3323 0.239,0.6597 0.3629,0.9884 0.1753,-0.3412 0.3533,-0.6807 0.5329,-1.0193 -0.2999,0.01 -0.597,0.018 -0.8958,0.031 z"
           inkscape:connector-curvature="0"
           id="path4975"
           style="fill:#626262;fill-opacity:0.55555558;stroke:none" />
        <path
           d="m 2264.1337,718.55732 c -0.023,-0.01 -0.046,-0.011 -0.069,-0.015 l 0.015,0.085 c 0.017,-0.024 0.037,-0.046 0.054,-0.069 z"
           inkscape:connector-curvature="0"
           id="path4977"
           style="fill:#626262;fill-opacity:0.55555558;stroke:none" />
        <path
           d="m 2221.3043,653.07152 c -1.7036,0 -3.3769,0.0971 -5.0313,0.28125 -0.2275,2.101 -0.3437,4.24625 -0.3437,6.40625 0,11.2848 3.1783,21.82565 8.7187,30.84375 2.9793,4.8494 6.6633,9.26095 10.875,13.09375 1.3178,1.1437 2.1703,1.89625 3.0313,2.59375 l 9.9062,56.90625 24.4063,0 c 0.1069,-0.39509 0.1875,-0.8205 0.1875,-1.25 0,-1.1868 -0.443,-2.2858 -1.1563,-3.125 l -0.094,-0.0937 -1.7187,-1.625 c -0.1258,-0.1554 -0.251,-0.3429 -0.375,-0.5 -0.777,-0.9847 -1.4978,-1.98355 -2.1875,-3.03125 -3.5048,-5.3236 -5.8647,-11.4354 -6.75,-18 -0.6582,-6.3729 -0.505,-10.60815 1.25,-17.65625 0.518,-1.6499 1.049,-3.2919 1.5625,-4.6875 0.4675,-1.2875 0.8691,-2.5982 1.2187,-3.9375 0.9458,-3.623 1.4375,-7.42515 1.4375,-11.34375 0,-15.3112 -7.6756,-28.844 -19.4062,-36.9375 -7.2486,-5.0011 -16.0526,-7.9375 -25.5313,-7.9375 z"
           inkscape:connector-curvature="0"
           id="path4979"
           style="fill:#4d4d4d;fill-opacity:1;stroke:none" />
        <path
           d="m 2298.4858,632.52202 c -0.7613,1.625 -1.4928,3.2828 -2.1875,4.9375 -5.0592,11.1144 -7.875,23.4517 -7.875,36.4375 0,4.7771 0.3914,9.4589 1.125,14.0313 0.6583,4.1035 1.6591,8.8817 3.0625,13.625 0.8636,2.9187 2.0634,5.6954 3.25,8.4062 1.7064,4.7291 3.5326,9.4166 5.25,14.0938 0.6431,2.0348 1.2516,4.1254 1.6877,5.875 1.4473,6.096 0.3235,12.4722 -3.3438,16.7187 l -11.3058,9.2002 9.8371,9.7373 c 0.8771,0.8072 2.2958,1.4671 3.6272,1.4671 2.4884,0 4.3377,-1.9087 4.6228,-4.1546 0,-0.01 0,-0.021 0,-0.031 0.4434,-0.8194 0.8638,-1.6299 1.2812,-2.3125 0.8649,-1.2861 1.8796,-2.4898 2.9375,-3.6875 l 1.25,-1.2188 c 0,0 5.5393,-5.6766 7.5313,-9.0625 1.0046,-1.7075 1.7305,-3.6001 2.1562,-5.5312 0.6079,-2.7583 0.8139,-5.2613 0.5313,-8.4688 -0.1839,-2.1041 -0.2941,-2.7136 -0.4688,-5.875 -0.024,-12.0756 0.7006,-23.6948 4.125,-34.8125 0.6923,-2.0417 1.5081,-4.248 2.25,-6.0312 0.7982,-1.9214 1.5244,-3.5466 2.5,-5.25 1.6426,-3.3391 3.9459,-6.4883 5.625,-9.8437 2.0267,-4.0243 2.1106,-7.584 2.1558,-11.5 0,-0.6957 -0.028,-1.399 -0.062,-2.0938 -0.014,-0.2897 -0.012,-0.5855 -0.031,-0.875 -0.2354,-4.3373 -0.9598,-8.5482 -2.0937,-12.5937 -0.01,-0.032 -0.022,-0.062 -0.031,-0.094 -0.087,-0.3727 -0.2391,-0.9144 -0.3273,-1.2852 -0.1275,-0.4539 0,-0.4994 -0.2667,-0.7461 -11.34,-9.1767 -24.4613,-10.6516 -36.813,-9.0626 z"
           inkscape:connector-curvature="0"
           id="path4981"
           style="fill:#4d4d4d;fill-opacity:1;fill-rule:evenodd;stroke:none" />
        <path
           d="m 2340.9758,572.01312 c -2.3278,0 -4.617,0.1772 -6.8503,0.5192 l -0.1394,-0.048 c 0.029,0.018 0.056,0.038 0.085,0.056 -10.4623,1.6151 -19.7447,6.8409 -26.5651,14.3837 -3.0458,3.3682 -5.5989,7.1976 -7.547,11.3727 -0.6466,1.386 -1.225,2.8149 -1.7338,4.2728 -1.6635,4.7654 -2.5699,9.8898 -2.5699,15.2302 0,5.1937 0.8532,10.3857 2.4304,15.0394 0.2995,-0.013 0.5973,-0.023 0.8978,-0.032 0.6918,-0.021 1.3852,-0.04 2.0822,-0.04 0.5536,0 1.1061,0.01 1.6564,0.024 11.8378,0.292 22.9045,3.51 32.4328,9.2636 0.9701,0.5858 1.9265,1.1954 4.1296,3.0887 2.203,1.8933 8.2443,4.6501 14.9118,4.6501 0.7126,0 1.4161,-0.034 2.1131,-0.096 4.0771,-0.3602 7.871,-1.752 11.1309,-3.9213 1.4274,-0.95 2.6666,-2.0946 3.8694,-3.3214 -0.4329,-0.5462 -0.7734,-1.0476 -1.1912,-1.6063 -8.7107,-11.6455 -14.1076,-25.9645 -14.7688,-41.5218 -0.046,-1.0753 -0.07,-2.1557 -0.07,-3.2425 0,-2.456 0.1179,-4.8807 0.3483,-7.2757 0.07,-0.7319 0.1487,-1.4627 0.24,-2.1883 0.4824,-3.8347 1.2529,-7.876 2.2911,-11.5052 -0.8267,-0.3425 -1.6652,-0.6567 -2.5156,-0.9504 -4.6008,-1.5891 -9.5345,-2.1517 -14.6681,-2.1517 z"
           inkscape:connector-curvature="0"
           id="path4983"
           style="fill:#ff0000;fill-opacity:1;fill-rule:evenodd;stroke:none" />
        <text
           x="1537.0034"
           y="754.31702"
           id="text4985"
           xml:space="preserve"
           style="font-size:175.66372681px;font-style:normal;font-weight:normal;line-height:56.00000024%;letter-spacing:0px;word-spacing:10.50176907px;fill:#000000;fill-opacity:1;stroke:none;font-family:Sans"><tspan
             x="1537.0034"
             y="754.31702"
             id="tspan4987"
             style="font-size:280.57406616px;font-weight:bold;line-height:56.00000024%;letter-spacing:16.67075348px;word-spacing:10.50176907px;fill:#1a1a1a;font-family:Teko Light;-inkscape-font-specification:Teko Light">SCIOUS</tspan></text>
      </g>
    </g>
  </g>
</svg>
