<?xml version="1.0" encoding="utf-8" ?>
<svg baseProfile="full" height="666" version="1.1" width="1885" xmlns="http://www.w3.org/2000/svg" xmlns:ev="http://www.w3.org/2001/xml-events" xmlns:xlink="http://www.w3.org/1999/xlink"><defs /><g font-family="Teko Light" font-size="38" id="layer2"><text fill="rgb(223, 215, 184)" x="1869" y="335">0</text><text fill="rgb(218, 213, 179)" x="1534" y="565">0</text><text fill="rgb(41, 70, 95)" x="1795" y="499">0</text><text fill="rgb(213, 213, 183)" x="1529" y="567">0</text><text fill="rgb(110, 160, 153)" x="1775" y="475">1</text><text fill="rgb(221, 218, 187)" x="1685" y="511">0</text><text fill="rgb(223, 218, 184)" x="1713" y="487">0</text><text fill="rgb(33, 38, 61)" x="1848" y="465">0</text><text fill="rgb(133, 169, 152)" x="1859" y="435">1</text><text fill="rgb(59, 86, 102)" x="1819" y="451">1</text><text fill="rgb(46, 80, 99)" x="1866" y="445">0</text><text fill="rgb(44, 80, 105)" x="1707" y="547">0</text><text fill="rgb(66, 103, 118)" x="1870" y="405">0</text><text fill="rgb(225, 220, 189)" x="1747" y="467">1</text><text fill="rgb(219, 213, 184)" x="1789" y="431">0</text><text fill="rgb(227, 222, 192)" x="1751" y="459">1</text><text fill="rgb(35, 50, 74)" x="1841" y="455">1</text><text fill="rgb(219, 214, 186)" x="1734" y="485">0</text><text fill="rgb(213, 207, 177)" x="1844" y="409">1</text><text fill="rgb(51, 92, 117)" x="1769" y="503">0</text><text fill="rgb(31, 47, 68)" x="1834" y="477">1</text><text fill="rgb(182, 191, 167)" x="1850" y="445">1</text><text fill="rgb(30, 32, 59)" x="1826" y="493">1</text><text fill="rgb(96, 126, 130)" x="1785" y="471">0</text><text fill="rgb(63, 95, 110)" x="1858" y="397">1</text><text fill="rgb(218, 214, 184)" x="1698" y="525">0</text><text fill="rgb(43, 83, 106)" x="1674" y="541">1</text><text fill="rgb(219, 211, 181)" x="1860" y="377">1</text><text fill="rgb(63, 100, 116)" x="1694" y="533">1</text><text fill="rgb(219, 210, 179)" x="1831" y="395">0</text><text fill="rgb(217, 211, 182)" x="1823" y="443">1</text><text fill="rgb(219, 212, 178)" x="1701" y="511">1</text><text fill="rgb(222, 216, 188)" x="1786" y="445">0</text><text fill="rgb(120, 165, 157)" x="1794" y="493">1</text><text fill="rgb(216, 212, 180)" x="1636" y="537">1</text><text fill="rgb(214, 213, 183)" x="1592" y="561">0</text><text fill="rgb(210, 204, 172)" x="1806" y="469">1</text><text fill="rgb(222, 214, 181)" x="1797" y="415">1</text><text fill="rgb(228, 220, 189)" x="1828" y="377">0</text><text fill="rgb(221, 214, 181)" x="1832" y="401">0</text><text fill="rgb(30, 33, 58)" x="1842" y="493">0</text><text fill="rgb(52, 85, 112)" x="1813" y="479">1</text><text fill="rgb(216, 208, 176)" x="1850" y="413">1</text><text fill="rgb(117, 166, 157)" x="1545" y="567">0</text><text fill="rgb(33, 52, 79)" x="1825" y="487">0</text><text fill="rgb(40, 71, 98)" x="1772" y="521">1</text><text fill="rgb(61, 87, 104)" x="1739" y="515">0</text><text fill="rgb(179, 184, 165)" x="1813" y="383">1</text><text fill="rgb(218, 212, 180)" x="1795" y="435">0</text><text fill="rgb(111, 158, 154)" x="1676" y="553">1</text><text fill="rgb(223, 210, 180)" x="1882" y="317">1</text><text fill="rgb(65, 91, 109)" x="1875" y="307">0</text><text fill="rgb(43, 74, 99)" x="1872" y="449">1</text><text fill="rgb(163, 179, 167)" x="1814" y="485">0</text><text fill="rgb(215, 210, 180)" x="1640" y="529">0</text><text fill="rgb(125, 154, 149)" x="1855" y="411">1</text><text fill="rgb(52, 91, 115)" x="1614" y="565">1</text><text fill="rgb(86, 101, 93)" x="1569" y="551">0</text><text fill="rgb(44, 82, 107)" x="1695" y="539">1</text><text fill="rgb(229, 224, 194)" x="1612" y="553">0</text><text fill="rgb(112, 157, 150)" x="1773" y="495">0</text><text fill="rgb(196, 197, 171)" x="1703" y="491">1</text><text fill="rgb(220, 215, 183)" x="1778" y="461">0</text><text fill="rgb(133, 166, 149)" x="1878" y="389">1</text><text fill="rgb(218, 213, 182)" x="1779" y="467">1</text><text fill="rgb(213, 209, 178)" x="1570" y="557">0</text><text fill="rgb(43, 76, 102)" x="1832" y="465">1</text><text fill="rgb(217, 208, 176)" x="1884" y="329">0</text><text fill="rgb(26, 38, 61)" x="1836" y="489">1</text><text fill="rgb(219, 211, 176)" x="1859" y="371">1</text><text fill="rgb(216, 212, 179)" x="1635" y="531">0</text><text fill="rgb(221, 216, 186)" x="1771" y="451">0</text><text fill="rgb(51, 92, 114)" x="1766" y="517">1</text><text fill="rgb(116, 162, 156)" x="1659" y="547">0</text><text fill="rgb(187, 194, 170)" x="1749" y="511">0</text><text fill="rgb(114, 157, 150)" x="1878" y="421">0</text><text fill="rgb(93, 140, 141)" x="1760" y="481">1</text><text fill="rgb(31, 39, 64)" x="1786" y="509">1</text><text fill="rgb(78, 118, 131)" x="1665" y="551">1</text><text fill="rgb(106, 158, 154)" x="1664" y="545">0</text><text fill="rgb(31, 50, 75)" x="1805" y="495">0</text><text fill="rgb(99, 114, 114)" x="1866" y="317">0</text><text fill="rgb(120, 165, 155)" x="1755" y="515">1</text><text fill="rgb(214, 208, 178)" x="1722" y="509">0</text><text fill="rgb(218, 211, 177)" x="1811" y="435">1</text><text fill="rgb(215, 208, 175)" x="1854" y="373">1</text><text fill="rgb(212, 208, 178)" x="1787" y="419">0</text><text fill="rgb(122, 164, 153)" x="1873" y="423">1</text><text fill="rgb(166, 174, 159)" x="1802" y="477">0</text><text fill="rgb(220, 216, 187)" x="1727" y="507">1</text><text fill="rgb(218, 211, 181)" x="1816" y="401">0</text><text fill="rgb(114, 161, 153)" x="1761" y="519">0</text><text fill="rgb(112, 156, 148)" x="1882" y="445">1</text><text fill="rgb(126, 137, 135)" x="1759" y="443">0</text><text fill="rgb(225, 220, 189)" x="1764" y="473">1</text><text fill="rgb(119, 164, 157)" x="1760" y="513">0</text><text fill="rgb(51, 91, 117)" x="1768" y="497">1</text><text fill="rgb(223, 215, 182)" x="1881" y="343">0</text><text fill="rgb(218, 211, 181)" x="1783" y="459">1</text><text fill="rgb(138, 162, 160)" x="1849" y="439">0</text><text fill="rgb(29, 30, 54)" x="1831" y="491">0</text><text fill="rgb(110, 156, 151)" x="1746" y="525">1</text><text fill="rgb(218, 213, 186)" x="1812" y="409">0</text><text fill="rgb(215, 209, 177)" x="1790" y="437">1</text><text fill="rgb(78, 111, 123)" x="1839" y="443">1</text><text fill="rgb(58, 95, 112)" x="1866" y="413">0</text><text fill="rgb(41, 76, 101)" x="1701" y="543">1</text><text fill="rgb(209, 200, 166)" x="1847" y="395">1</text><text fill="rgb(223, 217, 187)" x="1752" y="465">1</text><text fill="rgb(227, 221, 192)" x="1820" y="393">1</text><text fill="rgb(222, 215, 186)" x="1810" y="397">1</text><text fill="rgb(203, 204, 175)" x="1796" y="473">1</text><text fill="rgb(219, 213, 179)" x="1805" y="399">0</text><text fill="rgb(220, 214, 182)" x="1843" y="403">1</text><text fill="rgb(220, 212, 178)" x="1880" y="369">0</text><text fill="rgb(224, 219, 188)" x="1676" y="521">1</text><text fill="rgb(213, 208, 176)" x="1665" y="519">0</text><text fill="rgb(221, 211, 177)" x="1867" y="355">1</text><text fill="rgb(126, 170, 155)" x="1762" y="493">0</text><text fill="rgb(187, 194, 172)" x="1436" y="553">1</text><text fill="rgb(123, 169, 161)" x="1658" y="541">0</text><text fill="rgb(46, 79, 102)" x="1803" y="483">0</text><text fill="rgb(221, 215, 182)" x="1810" y="429">0</text><text fill="rgb(98, 112, 102)" x="1795" y="403">1</text><text fill="rgb(224, 217, 187)" x="1812" y="441">1</text><text fill="rgb(44, 78, 104)" x="1862" y="453">1</text><text fill="rgb(218, 214, 185)" x="1741" y="463">0</text><text fill="rgb(24, 29, 51)" x="1835" y="483">0</text><text fill="rgb(56, 99, 118)" x="1675" y="547">0</text><text fill="rgb(221, 217, 186)" x="1666" y="525">0</text><text fill="rgb(218, 216, 185)" x="1625" y="535">0</text><text fill="rgb(76, 115, 125)" x="1857" y="423">0</text><text fill="rgb(217, 211, 180)" x="1849" y="343">1</text><text fill="rgb(216, 206, 173)" x="1869" y="367">1</text><text fill="rgb(226, 217, 186)" x="1799" y="427">0</text><text fill="rgb(220, 212, 179)" x="1822" y="405">1</text><text fill="rgb(40, 66, 91)" x="1833" y="471">0</text><text fill="rgb(177, 189, 166)" x="1475" y="563">1</text><text fill="rgb(215, 207, 174)" x="1875" y="371">0</text><text fill="rgb(220, 209, 177)" x="1872" y="321">1</text><text fill="rgb(220, 210, 179)" x="1827" y="403">0</text><text fill="rgb(219, 212, 181)" x="1817" y="407">0</text><text fill="rgb(217, 214, 178)" x="1518" y="565">1</text><text fill="rgb(50, 89, 112)" x="1871" y="443">0</text><text fill="rgb(36, 70, 95)" x="1737" y="535">1</text><text fill="rgb(216, 209, 174)" x="1841" y="391">0</text><text fill="rgb(217, 213, 180)" x="1681" y="519">0</text><text fill="rgb(216, 212, 179)" x="1784" y="465">1</text><text fill="rgb(52, 96, 117)" x="1603" y="563">1</text><text fill="rgb(44, 69, 91)" x="1857" y="455">0</text><text fill="rgb(225, 219, 187)" x="1756" y="457">0</text><text fill="rgb(107, 152, 148)" x="1770" y="477">1</text><text fill="rgb(218, 212, 183)" x="1775" y="443">1</text><text fill="rgb(122, 163, 150)" x="1757" y="495">0</text><text fill="rgb(27, 43, 68)" x="1840" y="481">1</text><text fill="rgb(217, 213, 183)" x="1694" y="501">1</text><text fill="rgb(104, 146, 138)" x="1707" y="515">0</text><text fill="rgb(44, 76, 99)" x="1831" y="459">1</text><text fill="rgb(117, 128, 110)" x="1698" y="493">0</text><text fill="rgb(37, 47, 72)" x="1881" y="471">0</text><text fill="rgb(220, 214, 182)" x="1849" y="407">0</text><text fill="rgb(154, 169, 151)" x="1830" y="453">1</text><text fill="rgb(212, 209, 179)" x="1682" y="525">0</text><text fill="rgb(220, 216, 188)" x="1770" y="445">1</text><text fill="rgb(116, 166, 157)" x="1660" y="553">1</text><text fill="rgb(218, 209, 176)" x="1871" y="379">0</text><text fill="rgb(50, 84, 109)" x="1826" y="461">1</text><text fill="rgb(218, 214, 182)" x="1695" y="507">1</text><text fill="rgb(108, 150, 141)" x="1877" y="415">1</text><text fill="rgb(214, 210, 183)" x="1732" y="473">0</text><text fill="rgb(85, 128, 135)" x="1785" y="503">1</text><text fill="rgb(209, 204, 174)" x="1818" y="445">0</text><text fill="rgb(223, 217, 187)" x="1803" y="451">1</text><text fill="rgb(222, 216, 184)" x="1805" y="431">0</text><text fill="rgb(222, 216, 186)" x="1832" y="433">1</text><text fill="rgb(49, 88, 115)" x="1671" y="555">0</text><text fill="rgb(120, 140, 136)" x="1857" y="327">0</text><text fill="rgb(215, 209, 177)" x="1743" y="507">0</text><text fill="rgb(210, 206, 178)" x="1811" y="467">0</text><text fill="rgb(38, 66, 95)" x="1863" y="459">1</text><text fill="rgb(52, 87, 109)" x="1764" y="505">0</text><text fill="rgb(80, 122, 135)" x="1719" y="523">1</text><text fill="rgb(227, 221, 194)" x="1788" y="457">1</text><text fill="rgb(219, 213, 181)" x="1862" y="325">0</text><text fill="rgb(82, 127, 132)" x="1688" y="529">0</text><text fill="rgb(51, 91, 118)" x="1679" y="539">0</text><text fill="rgb(119, 157, 143)" x="1881" y="407">1</text><text fill="rgb(112, 160, 155)" x="1643" y="547">1</text><text fill="rgb(30, 39, 58)" x="1846" y="485">0</text><text fill="rgb(209, 205, 175)" x="1565" y="559">1</text><text fill="rgb(47, 87, 113)" x="1681" y="551">0</text><text fill="rgb(215, 208, 176)" x="1818" y="413">1</text><text fill="rgb(85, 130, 139)" x="1874" y="429">0</text><text fill="rgb(218, 215, 186)" x="1554" y="557">0</text><text fill="rgb(214, 204, 171)" x="1846" y="389">1</text><text fill="rgb(165, 176, 159)" x="1564" y="553">1</text><text fill="rgb(116, 167, 157)" x="1720" y="529">0</text><text fill="rgb(224, 220, 192)" x="1691" y="515">1</text><text fill="rgb(222, 211, 178)" x="1845" y="383">1</text><text fill="rgb(191, 199, 179)" x="1588" y="569">0</text><text fill="rgb(113, 159, 155)" x="1740" y="521">1</text><text fill="rgb(216, 213, 182)" x="1800" y="401">1</text><text fill="rgb(215, 208, 173)" x="1882" y="349">0</text><text fill="rgb(31, 41, 67)" x="1817" y="503">1</text><text fill="rgb(222, 216, 181)" x="1821" y="431">1</text><text fill="rgb(222, 216, 185)" x="1767" y="459">1</text><text fill="rgb(52, 89, 115)" x="1730" y="525">0</text><text fill="rgb(44, 85, 110)" x="1861" y="447">1</text><text fill="rgb(214, 210, 180)" x="1842" y="429">1</text><text fill="rgb(60, 95, 113)" x="1789" y="495">1</text><text fill="rgb(216, 211, 181)" x="1800" y="465">0</text><text fill="rgb(213, 208, 178)" x="1805" y="463">1</text><text fill="rgb(214, 209, 179)" x="1706" y="509">1</text><text fill="rgb(87, 112, 120)" x="1662" y="533">0</text><text fill="rgb(115, 162, 155)" x="1652" y="537">1</text><text fill="rgb(29, 38, 64)" x="1837" y="495">1</text><text fill="rgb(110, 157, 149)" x="1782" y="485">1</text><text fill="rgb(33, 40, 65)" x="1853" y="463">1</text><text fill="rgb(30, 48, 73)" x="1875" y="467">0</text><text fill="rgb(218, 212, 185)" x="1733" y="479">1</text><text fill="rgb(131, 149, 136)" x="1863" y="395">1</text><text fill="rgb(222, 216, 184)" x="1729" y="487">1</text><text fill="rgb(102, 149, 146)" x="1650" y="557">1</text><text fill="rgb(225, 216, 182)" x="1871" y="347">1</text><text fill="rgb(116, 161, 150)" x="1865" y="407">1</text><text fill="rgb(49, 86, 110)" x="1716" y="537">1</text><text fill="rgb(119, 166, 158)" x="1673" y="535">0</text><text fill="rgb(227, 218, 188)" x="1850" y="349">1</text><text fill="rgb(158, 185, 167)" x="1555" y="563">1</text><text fill="rgb(52, 93, 112)" x="1792" y="481">0</text><text fill="rgb(215, 209, 177)" x="1819" y="419">0</text><text fill="rgb(46, 77, 103)" x="1774" y="501">0</text><text fill="rgb(45, 75, 100)" x="1818" y="477">1</text><text fill="rgb(201, 201, 173)" x="1808" y="481">0</text><text fill="rgb(217, 213, 183)" x="1626" y="541">1</text><text fill="rgb(222, 215, 185)" x="1845" y="351">0</text><text fill="rgb(215, 211, 178)" x="1582" y="565">0</text><text fill="rgb(213, 211, 181)" x="1544" y="561">1</text><text fill="rgb(215, 210, 179)" x="1605" y="543">0</text><text fill="rgb(220, 215, 184)" x="1823" y="379">0</text><text fill="rgb(120, 168, 160)" x="1714" y="525">0</text><text fill="rgb(215, 209, 178)" x="1796" y="441">0</text><text fill="rgb(220, 211, 176)" x="1823" y="411">0</text><text fill="rgb(221, 217, 185)" x="1601" y="551">0</text><text fill="rgb(166, 193, 175)" x="1841" y="423">1</text><text fill="rgb(224, 219, 190)" x="1757" y="463">0</text><text fill="rgb(176, 184, 165)" x="1817" y="471">0</text><text fill="rgb(213, 208, 177)" x="1754" y="477">1</text><text fill="rgb(84, 110, 125)" x="1817" y="375">0</text><text fill="rgb(33, 42, 67)" x="1849" y="471">1</text><text fill="rgb(162, 178, 157)" x="1854" y="437">0</text><text fill="rgb(191, 196, 169)" x="1425" y="551">0</text><text fill="rgb(211, 206, 176)" x="1496" y="561">0</text><text fill="rgb(223, 215, 186)" x="1839" y="379">0</text><text fill="rgb(32, 39, 64)" x="1787" y="515">1</text><text fill="rgb(216, 211, 178)" x="1782" y="453">1</text><text fill="rgb(106, 152, 145)" x="1788" y="489">0</text><text fill="rgb(120, 136, 134)" x="1517" y="559">1</text><text fill="rgb(224, 220, 191)" x="1741" y="495">0</text><text fill="rgb(215, 207, 176)" x="1831" y="427">0</text><text fill="rgb(221, 214, 182)" x="1853" y="367">1</text><text fill="rgb(108, 161, 157)" x="1669" y="543">1</text><text fill="rgb(214, 208, 176)" x="1828" y="441">1</text><text fill="rgb(219, 213, 181)" x="1792" y="417">1</text><text fill="rgb(219, 212, 181)" x="1809" y="423">1</text><text fill="rgb(113, 161, 153)" x="1709" y="527">0</text><text fill="rgb(42, 79, 105)" x="1685" y="543">0</text><text fill="rgb(218, 212, 181)" x="1793" y="455">1</text><text fill="rgb(215, 211, 179)" x="1822" y="373">0</text><text fill="rgb(180, 192, 170)" x="1816" y="465">0</text><text fill="rgb(102, 148, 146)" x="1715" y="531">0</text><text fill="rgb(111, 162, 152)" x="1550" y="565">1</text><text fill="rgb(220, 212, 179)" x="1848" y="369">0</text><text fill="rgb(218, 214, 182)" x="1807" y="475">1</text><text fill="rgb(37, 65, 92)" x="1839" y="475">0</text><text fill="rgb(219, 210, 178)" x="1829" y="383">1</text><text fill="rgb(217, 215, 184)" x="1613" y="559">0</text><text fill="rgb(50, 84, 105)" x="1884" y="457">1</text><text fill="rgb(120, 167, 156)" x="1598" y="565">0</text><text fill="rgb(131, 166, 147)" x="1884" y="393">0</text><text fill="rgb(218, 211, 183)" x="1761" y="455">1</text><text fill="rgb(221, 213, 182)" x="1800" y="433">0</text><text fill="rgb(42, 82, 110)" x="1686" y="549">1</text><text fill="rgb(220, 212, 178)" x="1868" y="329">0</text><text fill="rgb(220, 216, 182)" x="1580" y="553">0</text><text fill="rgb(221, 214, 183)" x="1656" y="529">0</text><text fill="rgb(217, 212, 182)" x="1692" y="521">0</text><text fill="rgb(205, 204, 174)" x="1507" y="563">0</text><text fill="rgb(101, 148, 144)" x="1875" y="435">1</text><text fill="rgb(214, 209, 179)" x="1675" y="515">1</text><text fill="rgb(227, 219, 188)" x="1808" y="417">0</text><text fill="rgb(108, 156, 152)" x="1852" y="457">0</text><text fill="rgb(29, 33, 57)" x="1865" y="471">0</text><text fill="rgb(26, 28, 52)" x="1841" y="487">1</text><text fill="rgb(216, 210, 179)" x="1715" y="499">0</text><text fill="rgb(120, 166, 155)" x="1655" y="555">1</text><text fill="rgb(100, 147, 143)" x="1684" y="537">0</text><text fill="rgb(220, 217, 186)" x="1645" y="527">1</text><text fill="rgb(115, 164, 153)" x="1657" y="535">1</text><text fill="rgb(210, 207, 177)" x="1533" y="559">1</text><text fill="rgb(30, 40, 65)" x="1820" y="489">1</text><text fill="rgb(102, 146, 146)" x="1703" y="523">0</text><text fill="rgb(36, 67, 91)" x="1856" y="481">0</text><text fill="rgb(43, 78, 105)" x="1722" y="541">0</text><text fill="rgb(51, 81, 104)" x="1883" y="451">1</text><text fill="rgb(117, 165, 155)" x="1524" y="569">1</text><text fill="rgb(156, 182, 167)" x="1497" y="567">1</text><text fill="rgb(211, 204, 178)" x="1796" y="409">0</text><text fill="rgb(50, 89, 110)" x="1726" y="533">1</text><text fill="rgb(216, 211, 177)" x="1617" y="551">1</text><text fill="rgb(219, 213, 181)" x="1788" y="425">0</text><text fill="rgb(219, 211, 181)" x="1798" y="421">1</text><text fill="rgb(218, 210, 179)" x="1783" y="427">1</text><text fill="rgb(44, 78, 103)" x="1815" y="491">1</text><text fill="rgb(218, 213, 181)" x="1646" y="533">1</text><text fill="rgb(224, 214, 181)" x="1873" y="327">0</text><text fill="rgb(34, 41, 67)" x="1828" y="473">1</text><text fill="rgb(114, 159, 147)" x="1876" y="409">0</text><text fill="rgb(118, 167, 160)" x="1492" y="569">0</text><text fill="rgb(214, 209, 179)" x="1824" y="449">1</text><text fill="rgb(221, 213, 181)" x="1883" y="323">0</text><text fill="rgb(31, 38, 60)" x="1797" y="511">0</text><text fill="rgb(219, 215, 184)" x="1742" y="501">1</text><text fill="rgb(219, 218, 188)" x="1750" y="453">0</text><text fill="rgb(220, 211, 178)" x="1852" y="393">1</text><text fill="rgb(219, 213, 180)" x="1834" y="413">0</text><text fill="rgb(220, 213, 185)" x="1790" y="469">1</text><text fill="rgb(220, 215, 187)" x="1833" y="439">1</text><text fill="rgb(218, 213, 183)" x="1755" y="451">1</text><text fill="rgb(69, 107, 120)" x="1683" y="531">0</text><text fill="rgb(228, 221, 191)" x="1824" y="385">1</text><text fill="rgb(106, 154, 151)" x="1800" y="497">1</text><text fill="rgb(221, 213, 182)" x="1835" y="419">0</text><text fill="rgb(218, 207, 175)" x="1872" y="353">1</text><text fill="rgb(225, 220, 188)" x="1742" y="469">0</text><text fill="rgb(74, 113, 128)" x="1699" y="531">1</text><text fill="rgb(112, 161, 153)" x="1633" y="551">1</text><text fill="rgb(218, 214, 183)" x="1810" y="461">1</text><text fill="rgb(27, 36, 58)" x="1854" y="469">0</text><text fill="rgb(46, 72, 100)" x="1882" y="477">0</text><text fill="rgb(144, 163, 154)" x="1718" y="517">0</text><text fill="rgb(220, 210, 175)" x="1877" y="351">0</text><text fill="rgb(117, 161, 151)" x="1502" y="565">1</text><text fill="rgb(214, 210, 178)" x="1459" y="563">1</text><text fill="rgb(214, 211, 179)" x="1610" y="541">1</text><text fill="rgb(213, 209, 178)" x="1453" y="559">1</text><text fill="rgb(50, 95, 119)" x="1680" y="545">0</text><text fill="rgb(111, 157, 149)" x="1486" y="565">0</text><text fill="rgb(44, 84, 108)" x="1645" y="559">1</text><text fill="rgb(118, 158, 144)" x="1873" y="391">1</text><text fill="rgb(218, 213, 182)" x="1684" y="505">1</text><text fill="rgb(217, 214, 184)" x="1600" y="545">1</text><text fill="rgb(219, 214, 184)" x="1607" y="555">0</text><text fill="rgb(122, 163, 149)" x="1835" y="451">0</text><text fill="rgb(60, 98, 118)" x="1670" y="549">1</text><text fill="rgb(213, 209, 175)" x="1539" y="563">1</text><text fill="rgb(219, 215, 185)" x="1700" y="505">0</text><text fill="rgb(44, 76, 100)" x="1869" y="463">0</text><text fill="rgb(48, 90, 113)" x="1629" y="559">0</text><text fill="rgb(217, 212, 181)" x="1642" y="541">1</text><text fill="rgb(30, 34, 57)" x="1775" y="507">1</text><text fill="rgb(42, 72, 96)" x="1874" y="461">1</text><text fill="rgb(221, 214, 181)" x="1852" y="361">1</text><text fill="rgb(48, 79, 103)" x="1880" y="433">0</text><text fill="rgb(216, 209, 176)" x="1833" y="407">0</text><text fill="rgb(113, 162, 157)" x="1640" y="561">0</text><text fill="rgb(42, 75, 98)" x="1856" y="449">1</text><text fill="rgb(215, 212, 182)" x="1590" y="549">1</text><text fill="rgb(190, 197, 172)" x="1780" y="473">1</text><text fill="rgb(43, 79, 101)" x="1809" y="487">1</text><text fill="rgb(220, 214, 182)" x="1743" y="475">1</text><text fill="rgb(45, 73, 101)" x="1767" y="523">0</text><text fill="rgb(219, 213, 182)" x="1867" y="323">1</text><text fill="rgb(226, 223, 193)" x="1606" y="549">1</text><text fill="rgb(220, 209, 175)" x="1842" y="397">1</text><text fill="rgb(218, 211, 180)" x="1760" y="449">0</text><text fill="rgb(218, 211, 177)" x="1680" y="513">1</text><text fill="rgb(223, 216, 182)" x="1857" y="359">1</text><text fill="rgb(112, 159, 150)" x="1846" y="453">0</text><text fill="rgb(217, 210, 179)" x="1731" y="499">0</text><text fill="rgb(163, 182, 163)" x="1772" y="489">1</text><text fill="rgb(32, 46, 70)" x="1830" y="485">1</text><text fill="rgb(218, 210, 178)" x="1860" y="345">1</text><text fill="rgb(42, 77, 102)" x="1868" y="457">1</text><text fill="rgb(42, 70, 95)" x="1850" y="477">1</text><text fill="rgb(214, 211, 180)" x="1699" y="499">0</text><text fill="rgb(221, 215, 184)" x="1870" y="341">1</text><text fill="rgb(115, 159, 149)" x="1745" y="487">0</text><text fill="rgb(50, 86, 108)" x="1878" y="453">0</text><text fill="rgb(55, 91, 112)" x="1793" y="487">1</text><text fill="rgb(137, 172, 159)" x="1865" y="439">1</text><text fill="rgb(223, 218, 187)" x="1798" y="453">1</text><text fill="rgb(226, 217, 183)" x="1858" y="333">0</text><text fill="rgb(222, 216, 186)" x="1779" y="435">1</text><text fill="rgb(34, 43, 64)" x="1792" y="513">1</text><text fill="rgb(115, 161, 152)" x="1519" y="571">1</text><text fill="rgb(100, 143, 142)" x="1728" y="513">1</text><text fill="rgb(32, 39, 63)" x="1810" y="493">1</text><text fill="rgb(93, 136, 139)" x="1752" y="529">1</text><text fill="rgb(46, 77, 105)" x="1696" y="545">0</text><text fill="rgb(222, 217, 187)" x="1697" y="519">1</text><text fill="rgb(33, 53, 76)" x="1872" y="481">0</text><text fill="rgb(45, 83, 109)" x="1717" y="543">1</text><text fill="rgb(223, 218, 188)" x="1772" y="457">0</text><text fill="rgb(30, 52, 77)" x="1864" y="465">0</text><text fill="rgb(223, 217, 189)" x="1764" y="441">1</text><text fill="rgb(45, 74, 98)" x="1873" y="455">1</text><text fill="rgb(218, 210, 178)" x="1849" y="375">1</text><text fill="rgb(122, 162, 150)" x="1864" y="401">1</text><text fill="rgb(211, 207, 175)" x="1464" y="561">1</text><text fill="rgb(211, 207, 174)" x="1576" y="561">0</text><text fill="rgb(222, 216, 183)" x="1825" y="391">1</text><text fill="rgb(118, 168, 159)" x="1654" y="549">1</text><text fill="rgb(213, 205, 174)" x="1816" y="433">0</text><text fill="rgb(219, 214, 184)" x="1789" y="463">1</text><text fill="rgb(217, 213, 179)" x="1611" y="547">1</text><text fill="rgb(45, 78, 104)" x="1806" y="501">1</text><text fill="rgb(221, 212, 178)" x="1825" y="423">0</text><text fill="rgb(39, 71, 95)" x="1866" y="477">0</text><text fill="rgb(218, 214, 182)" x="1549" y="559">0</text><text fill="rgb(221, 213, 181)" x="1834" y="381">1</text><text fill="rgb(123, 163, 157)" x="1767" y="491">0</text><text fill="rgb(39, 54, 83)" x="1782" y="517">1</text><text fill="rgb(30, 34, 57)" x="1791" y="507">1</text><text fill="rgb(117, 164, 159)" x="1713" y="519">0</text><text fill="rgb(214, 208, 173)" x="1840" y="417">0</text><text fill="rgb(219, 211, 180)" x="1802" y="413">0</text><text fill="rgb(106, 158, 151)" x="1649" y="551">0</text><text fill="rgb(124, 171, 158)" x="1677" y="527">0</text><text fill="rgb(113, 164, 156)" x="1551" y="571">1</text><text fill="rgb(217, 210, 179)" x="1813" y="447">0</text><text fill="rgb(219, 211, 177)" x="1874" y="333">0</text><text fill="rgb(228, 218, 187)" x="1832" y="369">1</text><text fill="rgb(213, 209, 179)" x="1728" y="481">1</text><text fill="rgb(218, 209, 174)" x="1864" y="369">1</text><text fill="rgb(212, 205, 172)" x="1878" y="357">0</text><text fill="rgb(45, 83, 108)" x="1757" y="527">0</text><text fill="rgb(220, 215, 182)" x="1837" y="431">1</text><text fill="rgb(228, 223, 192)" x="1838" y="373">1</text><text fill="rgb(55, 95, 115)" x="1877" y="447">1</text><text fill="rgb(213, 208, 178)" x="1774" y="469">1</text><text fill="rgb(111, 162, 155)" x="1734" y="517">1</text><text fill="rgb(111, 163, 159)" x="1567" y="571">0</text><text fill="rgb(214, 212, 184)" x="1559" y="555">0</text><text fill="rgb(49, 76, 96)" x="1884" y="425">0</text><text fill="rgb(216, 208, 173)" x="1883" y="355">1</text><text fill="rgb(224, 215, 183)" x="1827" y="371">0</text><text fill="rgb(83, 119, 126)" x="1627" y="547">0</text><text fill="rgb(210, 208, 177)" x="1480" y="561">0</text><text fill="rgb(218, 211, 180)" x="1826" y="429">1</text><text fill="rgb(34, 44, 67)" x="1847" y="459">1</text><text fill="rgb(219, 216, 183)" x="1602" y="557">0</text><text fill="rgb(227, 222, 192)" x="1661" y="527">1</text><text fill="rgb(42, 62, 85)" x="1837" y="463">0</text><text fill="rgb(214, 206, 173)" x="1868" y="361">1</text><text fill="rgb(214, 208, 177)" x="1716" y="505">1</text><text fill="rgb(36, 55, 79)" x="1838" y="469">1</text><text fill="rgb(214, 209, 175)" x="1858" y="365">1</text><text fill="rgb(126, 167, 151)" x="1852" y="425">1</text><text fill="rgb(216, 210, 181)" x="1719" y="491">1</text><text fill="rgb(220, 214, 184)" x="1769" y="439">0</text><text fill="rgb(118, 162, 155)" x="1872" y="417">1</text><text fill="rgb(219, 214, 181)" x="1717" y="511">1</text><text fill="rgb(105, 116, 103)" x="1777" y="423">0</text><text fill="rgb(214, 209, 180)" x="1738" y="509">0</text><text fill="rgb(60, 101, 119)" x="1729" y="519">0</text><text fill="rgb(125, 168, 156)" x="1861" y="415">0</text><text fill="rgb(52, 90, 116)" x="1693" y="527">1</text><text fill="rgb(221, 216, 183)" x="1655" y="523">1</text><text fill="rgb(86, 129, 136)" x="1752" y="497">0</text><text fill="rgb(223, 218, 189)" x="1718" y="485">1</text><text fill="rgb(31, 29, 53)" x="1796" y="505">0</text><text fill="rgb(219, 215, 185)" x="1641" y="535">1</text><text fill="rgb(97, 147, 146)" x="1689" y="535">0</text><text fill="rgb(218, 214, 186)" x="1768" y="465">0</text><text fill="rgb(224, 217, 186)" x="1814" y="389">0</text><text fill="rgb(106, 148, 143)" x="1858" y="461">1</text><text fill="rgb(121, 166, 154)" x="1540" y="569">1</text><text fill="rgb(220, 214, 183)" x="1794" y="429">1</text><text fill="rgb(122, 164, 148)" x="1879" y="395">0</text><text fill="rgb(112, 158, 149)" x="1761" y="487">0</text><text fill="rgb(219, 213, 185)" x="1753" y="471">1</text><text fill="rgb(194, 202, 176)" x="1637" y="543">1</text><text fill="rgb(107, 153, 149)" x="1870" y="437">1</text><text fill="rgb(56, 87, 103)" x="1860" y="409">0</text><text fill="rgb(32, 46, 69)" x="1844" y="473">1</text><text fill="rgb(216, 212, 184)" x="1782" y="421">1</text><text fill="rgb(211, 203, 169)" x="1882" y="381">1</text><text fill="rgb(33, 43, 68)" x="1811" y="499">0</text><text fill="rgb(215, 212, 183)" x="1586" y="557">1</text><text fill="rgb(134, 146, 140)" x="1848" y="337">0</text><text fill="rgb(214, 210, 181)" x="1804" y="457">1</text><text fill="rgb(30, 35, 59)" x="1816" y="497">0</text><text fill="rgb(222, 216, 186)" x="1725" y="495">0</text><text fill="rgb(224, 215, 183)" x="1859" y="339">1</text><text fill="rgb(217, 211, 180)" x="1696" y="513">0</text><text fill="rgb(90, 122, 125)" x="1632" y="545">0</text><text fill="rgb(123, 169, 159)" x="1704" y="529">0</text><text fill="rgb(218, 214, 183)" x="1737" y="503">0</text><text fill="rgb(137, 172, 154)" x="1854" y="405">0</text><text fill="rgb(132, 175, 164)" x="1672" y="529">1</text><text fill="rgb(224, 215, 184)" x="1873" y="359">0</text><text fill="rgb(127, 168, 154)" x="1847" y="427">0</text><text fill="rgb(120, 165, 152)" x="1776" y="481">1</text><text fill="rgb(216, 211, 181)" x="1744" y="481">1</text><text fill="rgb(148, 159, 153)" x="1839" y="347">0</text><text fill="rgb(218, 212, 180)" x="1738" y="477">0</text><text fill="rgb(37, 61, 83)" x="1799" y="491">1</text><text fill="rgb(118, 167, 159)" x="1639" y="555">0</text><text fill="rgb(47, 84, 108)" x="1732" y="537">1</text><text fill="rgb(220, 215, 185)" x="1802" y="445">0</text><text fill="rgb(222, 215, 185)" x="1793" y="423">0</text><text fill="rgb(211, 206, 177)" x="1702" y="517">1</text><text fill="rgb(36, 43, 70)" x="1852" y="489">1</text><text fill="rgb(82, 123, 130)" x="1862" y="421">0</text><text fill="rgb(229, 221, 186)" x="1836" y="361">0</text><text fill="rgb(29, 44, 71)" x="1804" y="489">1</text><text fill="rgb(48, 88, 114)" x="1712" y="545">1</text><text fill="rgb(50, 86, 109)" x="1742" y="533">1</text><text fill="rgb(222, 217, 187)" x="1670" y="517">1</text><text fill="rgb(46, 81, 106)" x="1735" y="523">1</text><text fill="rgb(215, 212, 180)" x="1596" y="553">0</text><text fill="rgb(217, 210, 177)" x="1870" y="373">1</text><text fill="rgb(223, 216, 185)" x="1879" y="363">0</text><text fill="rgb(216, 210, 177)" x="1784" y="433">1</text><text fill="rgb(31, 41, 65)" x="1870" y="469">1</text><text fill="rgb(33, 38, 61)" x="1822" y="501">1</text><text fill="rgb(224, 215, 185)" x="1862" y="357">1</text><text fill="rgb(225, 220, 191)" x="1809" y="391">1</text><text fill="rgb(43, 77, 104)" x="1736" y="529">1</text><text fill="rgb(197, 199, 170)" x="1465" y="567">0</text><text fill="rgb(47, 87, 109)" x="1747" y="531">1</text><text fill="rgb(50, 85, 105)" x="1881" y="439">1</text><text fill="rgb(42, 76, 101)" x="1721" y="535">1</text><text fill="rgb(190, 195, 174)" x="1619" y="563">1</text><text fill="rgb(111, 155, 149)" x="1840" y="449">0</text><text fill="rgb(113, 164, 160)" x="1561" y="567">1</text><text fill="rgb(215, 211, 179)" x="1585" y="551">1</text><text fill="rgb(119, 163, 150)" x="1777" y="487">1</text><text fill="rgb(88, 126, 135)" x="1776" y="513">1</text><text fill="rgb(140, 175, 161)" x="1753" y="503">0</text><text fill="rgb(89, 111, 122)" x="1597" y="559">0</text><text fill="rgb(123, 158, 146)" x="1874" y="397">0</text><text fill="rgb(221, 214, 184)" x="1843" y="435">0</text><text fill="rgb(88, 130, 134)" x="1777" y="519">0</text><text fill="rgb(214, 208, 181)" x="1689" y="503">0</text><text fill="rgb(48, 85, 107)" x="1784" y="497">0</text><text fill="rgb(214, 210, 178)" x="1523" y="563">0</text><text fill="rgb(208, 206, 179)" x="1814" y="453">1</text><text fill="rgb(46, 79, 100)" x="1879" y="459">1</text><text fill="rgb(47, 76, 102)" x="1819" y="483">1</text><text fill="rgb(35, 47, 69)" x="1821" y="463">0</text><text fill="rgb(108, 136, 139)" x="1771" y="483">1</text><text fill="rgb(212, 207, 176)" x="1785" y="439">0</text><text fill="rgb(110, 159, 155)" x="1634" y="557">1</text><text fill="rgb(220, 214, 184)" x="1765" y="447">1</text><text fill="rgb(215, 208, 172)" x="1861" y="383">1</text><text fill="rgb(219, 213, 181)" x="1813" y="415">0</text><text fill="rgb(216, 208, 177)" x="1833" y="375">1</text><text fill="rgb(120, 164, 154)" x="1756" y="489">1</text><text fill="rgb(221, 215, 183)" x="1730" y="493">1</text><text fill="rgb(209, 200, 165)" x="1856" y="385">0</text><text fill="rgb(208, 206, 178)" x="1621" y="543">1</text><text fill="rgb(29, 31, 55)" x="1827" y="499">0</text><text fill="rgb(187, 194, 168)" x="1733" y="511">1</text><text fill="rgb(102, 150, 146)" x="1779" y="499">0</text><text fill="rgb(226, 218, 186)" x="1841" y="359">0</text><text fill="rgb(129, 171, 160)" x="1648" y="545">1</text><text fill="rgb(224, 219, 186)" x="1714" y="493">1</text><text fill="rgb(208, 205, 178)" x="1791" y="411">1</text><text fill="rgb(30, 37, 62)" x="1847" y="491">1</text><text fill="rgb(109, 162, 156)" x="1572" y="569">1</text><text fill="rgb(215, 212, 182)" x="1808" y="449">0</text><text fill="rgb(120, 164, 153)" x="1628" y="553">1</text><text fill="rgb(217, 207, 175)" x="1848" y="401">0</text><text fill="rgb(208, 208, 181)" x="1769" y="471">0</text><text fill="rgb(216, 207, 174)" x="1884" y="361">0</text><text fill="rgb(225, 217, 186)" x="1807" y="411">0</text><text fill="rgb(223, 216, 184)" x="1847" y="363">1</text><text fill="rgb(49, 85, 108)" x="1812" y="473">0</text><text fill="rgb(109, 160, 151)" x="1708" y="521">1</text><text fill="rgb(48, 81, 106)" x="1861" y="479">1</text><text fill="rgb(185, 193, 174)" x="1736" y="465">0</text><text fill="rgb(138, 146, 141)" x="1474" y="557">0</text><text fill="rgb(106, 158, 152)" x="1644" y="553">1</text><text fill="rgb(219, 211, 177)" x="1850" y="381">1</text><text fill="rgb(124, 168, 156)" x="1815" y="459">1</text><text fill="rgb(56, 88, 104)" x="1883" y="419">1</text><text fill="rgb(92, 109, 114)" x="1884" y="297">0</text><text fill="rgb(50, 86, 110)" x="1706" y="541">1</text><text fill="rgb(32, 44, 67)" x="1842" y="461">0</text><text fill="rgb(98, 143, 142)" x="1577" y="567">0</text><text fill="rgb(135, 175, 161)" x="1746" y="493">1</text><text fill="rgb(201, 203, 172)" x="1723" y="515">0</text><text fill="rgb(214, 206, 172)" x="1878" y="325">0</text><text fill="rgb(67, 97, 113)" x="1638" y="549">0</text><text fill="rgb(120, 138, 139)" x="1538" y="557">0</text><text fill="rgb(220, 213, 181)" x="1826" y="397">0</text><text fill="rgb(215, 206, 175)" x="1777" y="455">0</text><text fill="rgb(219, 215, 186)" x="1667" y="531">0</text><text fill="rgb(225, 216, 188)" x="1851" y="355">0</text><text fill="rgb(213, 208, 177)" x="1732" y="505">0</text><text fill="rgb(216, 209, 176)" x="1690" y="509">1</text><text fill="rgb(162, 173, 159)" x="1868" y="393">0</text><text fill="rgb(224, 219, 185)" x="1814" y="421">0</text><text fill="rgb(222, 216, 186)" x="1838" y="437">0</text><text fill="rgb(202, 204, 177)" x="1470" y="565">1</text><text fill="rgb(214, 212, 179)" x="1528" y="561">0</text><text fill="rgb(95, 124, 131)" x="1869" y="399">1</text><text fill="rgb(220, 211, 179)" x="1876" y="345">1</text><text fill="rgb(50, 94, 118)" x="1666" y="557">1</text><text fill="rgb(218, 208, 177)" x="1837" y="399">0</text><text fill="rgb(80, 116, 125)" x="1822" y="469">0</text><text fill="rgb(220, 213, 180)" x="1861" y="351">0</text><text fill="rgb(39, 66, 93)" x="1801" y="503">0</text><text fill="rgb(216, 212, 182)" x="1748" y="505">0</text><text fill="rgb(172, 194, 177)" x="1836" y="457">0</text><text fill="rgb(223, 219, 189)" x="1723" y="483">0</text><text fill="rgb(221, 216, 184)" x="1595" y="547">1</text><text fill="rgb(219, 213, 181)" x="1748" y="473">1</text><text fill="rgb(36, 44, 68)" x="1867" y="483">1</text><text fill="rgb(36, 49, 71)" x="1608" y="561">0</text><text fill="rgb(78, 100, 115)" x="1669" y="511">1</text><text fill="rgb(230, 222, 190)" x="1846" y="357">1</text><text fill="rgb(216, 212, 182)" x="1651" y="531">0</text><text fill="rgb(128, 167, 155)" x="1853" y="431">1</text><text fill="rgb(222, 216, 183)" x="1758" y="469">0</text><text fill="rgb(113, 160, 154)" x="1765" y="511">0</text><text fill="rgb(43, 76, 100)" x="1867" y="451">0</text><text fill="rgb(44, 75, 100)" x="1880" y="465">0</text><text fill="rgb(113, 159, 149)" x="1879" y="427">1</text><text fill="rgb(119, 163, 156)" x="1766" y="485">1</text><text fill="rgb(214, 210, 178)" x="1575" y="555">0</text><text fill="rgb(217, 208, 175)" x="1865" y="375">1</text><text fill="rgb(219, 212, 179)" x="1842" y="365">1</text><text fill="rgb(214, 210, 177)" x="1829" y="447">0</text><text fill="rgb(214, 210, 179)" x="1448" y="561">0</text><text fill="rgb(121, 162, 146)" x="1864" y="433">1</text><text fill="rgb(33, 51, 78)" x="1845" y="479">0</text><text fill="rgb(221, 218, 185)" x="1591" y="555">0</text><text fill="rgb(131, 168, 151)" x="1859" y="403">0</text><text fill="rgb(84, 107, 118)" x="1877" y="383">0</text><text fill="rgb(204, 201, 174)" x="1773" y="431">1</text><text fill="rgb(118, 163, 155)" x="1759" y="507">1</text><text fill="rgb(112, 159, 151)" x="1781" y="479">1</text><text fill="rgb(28, 44, 70)" x="1802" y="509">0</text><text fill="rgb(207, 210, 186)" x="1722" y="477">0</text><text fill="rgb(221, 216, 185)" x="1711" y="507">1</text><text fill="rgb(207, 201, 170)" x="1880" y="305">1</text><text fill="rgb(221, 216, 185)" x="1799" y="459">1</text><text fill="rgb(216, 206, 175)" x="1866" y="381">1</text><text fill="rgb(219, 210, 178)" x="1840" y="385">0</text><text fill="rgb(143, 172, 160)" x="1823" y="475">1</text><text fill="rgb(111, 159, 154)" x="1771" y="515">0</text><text fill="rgb(226, 219, 189)" x="1856" y="353">0</text><text fill="rgb(27, 32, 56)" x="1857" y="487">0</text><text fill="rgb(88, 130, 133)" x="1851" y="451">0</text><text fill="rgb(219, 207, 174)" x="1881" y="311">1</text><text fill="rgb(224, 218, 186)" x="1737" y="471">1</text><text fill="rgb(119, 164, 155)" x="1787" y="483">0</text><text fill="rgb(222, 213, 183)" x="1806" y="405">0</text><text fill="rgb(223, 218, 187)" x="1724" y="489">1</text><text fill="rgb(148, 181, 165)" x="1593" y="567">0</text><text fill="rgb(39, 72, 97)" x="1798" y="485">0</text><text fill="rgb(213, 208, 177)" x="1844" y="441">0</text><text fill="rgb(162, 185, 165)" x="1724" y="521">0</text><text fill="rgb(137, 178, 162)" x="1508" y="569">1</text><text fill="rgb(224, 218, 185)" x="1720" y="497">0</text><text fill="rgb(224, 214, 181)" x="1865" y="343">0</text><text fill="rgb(216, 210, 181)" x="1801" y="407">0</text><text fill="rgb(228, 219, 188)" x="1835" y="387">0</text><text fill="rgb(224, 217, 187)" x="1843" y="371">1</text><text fill="rgb(116, 158, 150)" x="1858" y="429">0</text><text fill="rgb(219, 213, 180)" x="1560" y="561">1</text><text fill="rgb(47, 87, 110)" x="1702" y="549">1</text><text fill="rgb(35, 39, 60)" x="1876" y="473">0</text><text fill="rgb(114, 123, 105)" x="1786" y="413">1</text><text fill="rgb(220, 211, 177)" x="1806" y="437">1</text><text fill="rgb(223, 216, 188)" x="1819" y="387">0</text><text fill="rgb(221, 216, 186)" x="1822" y="437">1</text><text fill="rgb(149, 175, 157)" x="1867" y="387">1</text><text fill="rgb(220, 215, 182)" x="1709" y="495">1</text><text fill="rgb(87, 125, 137)" x="1883" y="387">1</text><text fill="rgb(213, 204, 169)" x="1876" y="313">0</text><text fill="rgb(155, 171, 161)" x="1750" y="485">1</text><text fill="rgb(215, 207, 176)" x="1851" y="387">1</text><text fill="rgb(122, 167, 159)" x="1867" y="419">0</text><text fill="rgb(220, 214, 183)" x="1830" y="421">1</text><text fill="rgb(45, 83, 106)" x="1741" y="527">1</text><text fill="rgb(50, 88, 110)" x="1630" y="565">0</text><text fill="rgb(54, 96, 112)" x="1791" y="475">0</text><text fill="rgb(88, 130, 137)" x="1763" y="499">0</text><text fill="rgb(193, 197, 173)" x="1485" y="559">0</text><text fill="rgb(146, 177, 161)" x="1513" y="567">1</text><text fill="rgb(219, 214, 183)" x="1762" y="461">0</text><text fill="rgb(92, 114, 119)" x="1664" y="513">0</text><text fill="rgb(215, 210, 176)" x="1739" y="483">0</text><text fill="rgb(31, 48, 72)" x="1859" y="467">1</text><text fill="rgb(110, 139, 144)" x="1618" y="557">0</text><text fill="rgb(120, 161, 151)" x="1668" y="537">0</text><text fill="rgb(105, 155, 150)" x="1663" y="539">0</text><text fill="rgb(217, 207, 176)" x="1875" y="339">1</text><text fill="rgb(219, 213, 183)" x="1778" y="429">1</text><text fill="rgb(217, 212, 182)" x="1735" y="491">1</text><text fill="rgb(46, 81, 105)" x="1758" y="501">0</text><text fill="rgb(222, 217, 188)" x="1797" y="447">1</text><text fill="rgb(220, 215, 184)" x="1749" y="479">1</text><text fill="rgb(214, 209, 180)" x="1630" y="533">1</text><text fill="rgb(89, 106, 108)" x="1717" y="479">0</text><text fill="rgb(104, 125, 134)" x="1830" y="357">0</text><text fill="rgb(113, 140, 138)" x="1856" y="417">0</text><text fill="rgb(224, 218, 187)" x="1746" y="461">1</text><text fill="rgb(221, 215, 182)" x="1836" y="425">1</text><text fill="rgb(220, 210, 175)" x="1879" y="331">0</text><text fill="rgb(76, 119, 130)" x="1860" y="441">0</text><text fill="rgb(96, 122, 123)" x="1804" y="393">0</text><text fill="rgb(37, 55, 81)" x="1623" y="555">1</text><text fill="rgb(213, 206, 173)" x="1874" y="365">1</text><text fill="rgb(24, 30, 54)" x="1832" y="497">1</text><text fill="rgb(147, 161, 155)" x="1674" y="509">0</text><text fill="rgb(223, 217, 185)" x="1801" y="471">0</text><text fill="rgb(221, 210, 174)" x="1844" y="377">1</text><text fill="rgb(125, 167, 158)" x="1535" y="571">0</text><text fill="rgb(227, 218, 186)" x="1801" y="439">1</text><text fill="rgb(215, 209, 179)" x="1726" y="501">1</text><text fill="rgb(226, 217, 186)" x="1866" y="349">1</text><text fill="rgb(33, 40, 65)" x="1851" y="483">0</text><text fill="rgb(224, 217, 187)" x="1792" y="449">1</text><text fill="rgb(221, 214, 184)" x="1845" y="415">1</text><text fill="rgb(221, 214, 185)" x="1844" y="345">0</text><text fill="rgb(194, 200, 178)" x="1571" y="563">1</text><text fill="rgb(219, 210, 176)" x="1880" y="337">0</text><text fill="rgb(39, 75, 101)" x="1731" y="531">1</text><text fill="rgb(201, 203, 174)" x="1740" y="489">0</text><text fill="rgb(216, 213, 180)" x="1708" y="489">0</text><text fill="rgb(218, 213, 184)" x="1671" y="523">1</text><text fill="rgb(77, 114, 124)" x="1690" y="541">1</text><text fill="rgb(224, 218, 184)" x="1820" y="425">1</text><text fill="rgb(214, 205, 172)" x="1855" y="379">0</text><text fill="rgb(220, 212, 180)" x="1855" y="347">0</text><text fill="rgb(223, 214, 183)" x="1803" y="419">1</text><text fill="rgb(209, 206, 175)" x="1512" y="561">0</text><text fill="rgb(109, 154, 149)" x="1786" y="477">1</text><text fill="rgb(33, 49, 71)" x="1827" y="467">0</text><text fill="rgb(217, 210, 178)" x="1881" y="375">0</text><text fill="rgb(44, 72, 100)" x="1727" y="539">0</text><text fill="rgb(93, 141, 144)" x="1756" y="521">0</text><text fill="rgb(125, 160, 147)" x="1872" y="385">0</text><text fill="rgb(224, 217, 186)" x="1815" y="427">0</text><text fill="rgb(222, 216, 185)" x="1830" y="389">0</text><text fill="rgb(47, 83, 107)" x="1700" y="537">1</text><text fill="rgb(109, 159, 152)" x="1653" y="543">1</text><text fill="rgb(220, 214, 183)" x="1853" y="335">1</text><text fill="rgb(213, 211, 184)" x="1826" y="365">0</text><text fill="rgb(214, 209, 177)" x="1615" y="539">1</text><text fill="rgb(222, 218, 187)" x="1660" y="521">0</text><text fill="rgb(110, 154, 146)" x="1845" y="447">1</text><text fill="rgb(221, 217, 189)" x="1727" y="475">0</text><text fill="rgb(49, 85, 108)" x="1635" y="563">1</text><text fill="rgb(224, 216, 184)" x="1837" y="367">1</text><text fill="rgb(222, 215, 184)" x="1791" y="443">1</text><text fill="rgb(125, 166, 156)" x="1876" y="441">1</text><text fill="rgb(224, 215, 182)" x="1829" y="415">1</text><text fill="rgb(128, 171, 162)" x="1678" y="533">1</text><text fill="rgb(28, 45, 72)" x="1812" y="505">1</text><text fill="rgb(215, 212, 178)" x="1622" y="549">0</text><text fill="rgb(216, 209, 179)" x="1817" y="439">1</text><text fill="rgb(210, 202, 169)" x="1871" y="315">0</text><text fill="rgb(179, 189, 169)" x="1853" y="399">1</text><text fill="rgb(208, 207, 177)" x="1458" y="557">0</text><text fill="rgb(110, 152, 152)" x="1705" y="535">0</text><text fill="rgb(225, 217, 185)" x="1840" y="353">1</text><text fill="rgb(220, 213, 183)" x="1780" y="441">1</text><text fill="rgb(114, 166, 159)" x="1556" y="569">1</text><text fill="rgb(217, 212, 179)" x="1818" y="381">1</text><text fill="rgb(103, 151, 143)" x="1725" y="527">0</text><text fill="rgb(222, 215, 181)" x="1864" y="337">1</text><text fill="rgb(107, 156, 154)" x="1778" y="493">1</text><text fill="rgb(47, 84, 109)" x="1762" y="525">1</text><text fill="rgb(220, 216, 186)" x="1705" y="503">1</text><text fill="rgb(78, 104, 118)" x="1875" y="403">1</text><text fill="rgb(26, 34, 57)" x="1855" y="475">0</text><text fill="rgb(115, 161, 152)" x="1754" y="509">1</text><text fill="rgb(87, 126, 134)" x="1770" y="509">1</text><text fill="rgb(198, 201, 175)" x="1712" y="513">0</text><text fill="rgb(34, 45, 67)" x="1843" y="467">1</text><text fill="rgb(216, 213, 179)" x="1759" y="475">0</text><text fill="rgb(215, 208, 177)" x="1824" y="417">0</text><text fill="rgb(217, 211, 181)" x="1710" y="501">0</text><text fill="rgb(206, 202, 170)" x="1469" y="559">1</text><text fill="rgb(26, 39, 64)" x="1829" y="479">1</text><text fill="rgb(36, 46, 71)" x="1871" y="475">1</text><text fill="rgb(215, 206, 171)" x="1838" y="405">1</text><text fill="rgb(216, 213, 183)" x="1616" y="545">1</text><text fill="rgb(216, 213, 182)" x="1587" y="563">1</text><text fill="rgb(221, 214, 185)" x="1794" y="461">1</text><text fill="rgb(220, 214, 185)" x="1776" y="449">0</text><text fill="rgb(123, 164, 155)" x="1868" y="425">0</text><text fill="rgb(221, 214, 186)" x="1774" y="437">1</text><text fill="rgb(48, 87, 111)" x="1710" y="533">0</text><text fill="rgb(90, 139, 144)" x="1751" y="523">1</text><text fill="rgb(88, 135, 139)" x="1820" y="457">0</text><text fill="rgb(31, 57, 86)" x="1780" y="505">1</text><text fill="rgb(216, 208, 180)" x="1828" y="409">0</text><text fill="rgb(227, 220, 188)" x="1821" y="399">0</text><text fill="rgb(216, 212, 181)" x="1631" y="539">1</text><text fill="rgb(190, 201, 175)" x="1747" y="499">1</text><text fill="rgb(216, 212, 180)" x="1566" y="565">1</text><text fill="rgb(224, 219, 190)" x="1704" y="497">0</text><text fill="rgb(214, 204, 171)" x="1863" y="363">0</text><text fill="rgb(28, 44, 70)" x="1790" y="501">0</text><text fill="rgb(222, 218, 184)" x="1581" y="559">1</text><text fill="rgb(219, 214, 183)" x="1650" y="525">0</text><text fill="rgb(28, 35, 61)" x="1860" y="473">0</text><text fill="rgb(217, 211, 181)" x="1773" y="463">1</text><text fill="rgb(225, 219, 189)" x="1854" y="341">1</text><text fill="rgb(111, 158, 151)" x="1825" y="455">0</text><text fill="rgb(209, 208, 180)" x="1765" y="479">1</text><text fill="rgb(114, 160, 152)" x="1750" y="517">1</text><text fill="rgb(219, 213, 182)" x="1862" y="389">0</text><text fill="rgb(112, 161, 155)" x="1869" y="431">0</text><text fill="rgb(42, 81, 105)" x="1691" y="547">0</text><text fill="rgb(63, 91, 109)" x="1851" y="419">0</text><text fill="rgb(98, 139, 137)" x="1834" y="445">0</text><text fill="rgb(122, 163, 152)" x="1846" y="421">0</text><text fill="rgb(223, 218, 188)" x="1807" y="443">0</text><text fill="rgb(133, 158, 151)" x="1745" y="519">1</text><text fill="rgb(225, 219, 190)" x="1686" y="517">0</text><text fill="rgb(222, 215, 184)" x="1736" y="497">0</text><text fill="rgb(53, 86, 102)" x="1882" y="413">0</text><text fill="rgb(215, 209, 175)" x="1721" y="503">1</text><text fill="rgb(49, 90, 112)" x="1624" y="561">1</text><text fill="rgb(222, 214, 181)" x="1857" y="391">0</text><text fill="rgb(221, 213, 181)" x="1836" y="393">1</text><text fill="rgb(218, 212, 180)" x="1839" y="411">0</text><text fill="rgb(170, 187, 167)" x="1848" y="433">0</text><text fill="rgb(212, 208, 177)" x="1442" y="557">0</text><text fill="rgb(227, 220, 190)" x="1811" y="403">1</text><text fill="rgb(214, 210, 180)" x="1744" y="513">0</text><text fill="rgb(221, 213, 185)" x="1787" y="451">0</text><text fill="rgb(216, 214, 183)" x="1620" y="537">1</text><text fill="rgb(213, 209, 175)" x="1763" y="467">0</text><text fill="rgb(29, 36, 61)" x="1862" y="485">1</text><text fill="rgb(219, 213, 183)" x="1804" y="425">0</text><text fill="rgb(118, 161, 148)" x="1863" y="427">1</text><text fill="rgb(47, 85, 111)" x="1711" y="539">0</text><text fill="rgb(109, 158, 150)" x="1661" y="559">0</text><text fill="rgb(220, 213, 184)" x="1815" y="395">0</text><text fill="rgb(210, 207, 178)" x="1431" y="555">0</text><text fill="rgb(28, 43, 71)" x="1821" y="495">1</text><text fill="rgb(123, 165, 153)" x="1783" y="491">0</text><text fill="rgb(98, 113, 109)" x="1768" y="433">1</text><text fill="rgb(215, 211, 179)" x="1795" y="467">0</text><text fill="rgb(228, 221, 190)" x="1831" y="363">1</text><text fill="rgb(115, 161, 154)" x="1751" y="491">0</text><text fill="rgb(217, 210, 177)" x="1781" y="447">1</text><text fill="rgb(92, 132, 137)" x="1871" y="411">1</text><text fill="rgb(44, 76, 100)" x="1824" y="481">1</text><text fill="rgb(47, 78, 100)" x="1877" y="479">1</text><text fill="rgb(219, 213, 181)" x="1827" y="435">1</text><text fill="rgb(214, 208, 178)" x="1766" y="453">1</text><text fill="rgb(215, 212, 185)" x="1491" y="563">0</text><text fill="rgb(46, 81, 103)" x="1797" y="479">1</text><text fill="rgb(33, 40, 69)" x="1781" y="511">1</text><text fill="rgb(131, 171, 156)" x="1755" y="483">0</text><text fill="rgb(144, 168, 153)" x="1481" y="567">1</text><text fill="rgb(124, 163, 148)" x="1880" y="401">1</text><text fill="rgb(199, 200, 172)" x="1447" y="555">1</text><text fill="rgb(216, 207, 172)" x="1876" y="377">1</text><text fill="rgb(216, 212, 183)" x="1687" y="523">1</text><text fill="rgb(32, 42, 60)" x="1807" y="507">0</text><text fill="rgb(215, 207, 170)" x="1877" y="319">1</text><text fill="rgb(212, 213, 186)" x="1679" y="507">1</text><text fill="rgb(48, 83, 105)" x="1855" y="443">0</text><text fill="rgb(224, 220, 188)" x="1835" y="355">1</text><text fill="rgb(219, 213, 182)" x="1809" y="455">1</text><text fill="rgb(215, 211, 178)" x="1647" y="539">1</text><text fill="rgb(226, 217, 185)" x="1863" y="331">1</text></g></svg>