<?xml version="1.0" encoding="utf-8" ?>
<svg baseProfile="full" height="666" version="1.1" width="1885" xmlns="http://www.w3.org/2000/svg" xmlns:ev="http://www.w3.org/2001/xml-events" xmlns:xlink="http://www.w3.org/1999/xlink"><defs /><g font-family="Teko Light" font-size="38" id="layer0"><text fill="rgb(223, 218, 186)" x="1286" y="357">1</text><text fill="rgb(222, 220, 189)" x="1442" y="301">1</text><text fill="rgb(223, 218, 185)" x="1423" y="411">0</text><text fill="rgb(216, 210, 177)" x="1265" y="231">0</text><text fill="rgb(219, 215, 183)" x="1297" y="167">1</text><text fill="rgb(215, 211, 179)" x="1303" y="331">0</text><text fill="rgb(221, 219, 188)" x="1269" y="191">0</text><text fill="rgb(221, 217, 183)" x="1422" y="309">0</text><text fill="rgb(216, 211, 178)" x="1277" y="431">0</text><text fill="rgb(220, 216, 187)" x="1319" y="363">1</text><text fill="rgb(214, 208, 172)" x="1289" y="471">1</text><text fill="rgb(220, 216, 182)" x="1348" y="313">1</text><text fill="rgb(215, 210, 178)" x="1352" y="465">1</text><text fill="rgb(220, 216, 182)" x="1266" y="333">0</text><text fill="rgb(226, 222, 190)" x="1273" y="183">1</text><text fill="rgb(224, 221, 188)" x="1262" y="245">1</text><text fill="rgb(219, 214, 182)" x="1445" y="351">1</text><text fill="rgb(216, 212, 179)" x="1316" y="473">1</text><text fill="rgb(215, 213, 183)" x="1436" y="265">0</text><text fill="rgb(215, 212, 180)" x="1428" y="377">0</text><text fill="rgb(222, 219, 188)" x="1268" y="313">1</text><text fill="rgb(221, 216, 183)" x="1265" y="423">0</text><text fill="rgb(219, 215, 184)" x="1251" y="339">1</text><text fill="rgb(216, 212, 179)" x="1395" y="435">0</text><text fill="rgb(224, 217, 186)" x="1367" y="331">0</text><text fill="rgb(223, 219, 190)" x="1413" y="287">0</text><text fill="rgb(216, 212, 180)" x="1360" y="417">0</text><text fill="rgb(215, 211, 182)" x="1394" y="301">0</text><text fill="rgb(218, 214, 181)" x="1284" y="313">1</text><text fill="rgb(219, 217, 187)" x="1293" y="175">0</text><text fill="rgb(215, 211, 177)" x="1376" y="449">1</text><text fill="rgb(222, 218, 186)" x="1278" y="245">1</text></g></svg>